<?xml version="1.0" encoding="UTF-8" standalone="no"?>
<svg
   xmlnsDc="http://purl.org/dc/elements/1.1/"
   xmlnsCc="http://creativecommons.org/ns#"
   xmlnsRdf="http://www.w3.org/1999/02/22-rdf-syntax-ns#"
   xmlnsSvg="http://www.w3.org/2000/svg"
   xmlns="http://www.w3.org/2000/svg"
   xmlnsSodipodi="http://sodipodi.sourceforge.net/DTD/sodipodi-0.dtd"
   xmlnsInkscape="http://www.inkscape.org/namespaces/inkscape"
   viewBox="0 0 38.563158 46.760172"
   version="1.1"
   id="svg662"
   sodipodiDocname="Trondheim kommunevåpen hvit boks.svg"
   width="38.563156"
   height="46.760174"
   inkscapeVersion="1.0.2-2 (e86c870879, 2021-01-15)">
  <metadata
     id="metadata666">
    <rdfRDF>
      <ccWork
         rdfabout="">
        <dcFormat>image/svg+xml</dcFormat>
        <dcType
           rdfResource="http://purl.org/dc/dcmitype/StillImage" />
      </ccWork>
    </rdfRDF>
  </metadata>
  <sodipodiNamedview
     pagecolor="#ffffff"
     bordercolor="#666666"
     borderopacity="1"
     objecttolerance="10"
     gridtolerance="10"
     guidetolerance="10"
     inkscapePageopacity="0"
     inkscapePageshadow="2"
     inkscapeWindow-width="1920"
     inkscapeWindow-height="1017"
     id="namedview664"
     showgrid="false"
     inkscapeZoom="10.096211"
     inkscapeCx="19.329998"
     inkscapeCy="23.385176"
     inkscapeWindow-x="-8"
     inkscapeWindow-y="-8"
     inkscapeWindow-maximized="1"
     inkscapeCurrent-layer="svg662" />
  <defs
     id="defs4">
    <style
       id="style2">.cls-1{fill:#fff;}.cls-2{fill:#1d1d1b;}.cls-3{fill:#dadada;}.cls-4{fill:#009bdf;}</style>
  </defs>
  <title
     id="title6">Trondheim kommunevåpen hvit boks</title>
  <g
     id="Kommunevåpen"
     transform="translate(-18.68,-18.709825)">
    <path
       class="cls-2"
       d="m 37.7,65.47 h 0.08 a 9.76,9.76 0 0 1 3.89,-3.09 c 3.62,-2 8.76,-2.79 10.21,-7.2 A 26.25,26.25 0 0 0 52,50.81 V 28.15 c 0.32,0 0.71,0.3 1,0.16 1.37,-1.88 2.59,-3.8 4,-5.64 a 0.29,0.29 0 0 0 0.05,-0.21 20.09,20.09 0 0 0 -2.79,-1 15.9,15.9 0 0 0 -0.95,2.05 c -0.71,-0.1 -1.45,-0.42 -2.19,-0.6 a 0.08,0.08 0 0 0 -0.05,0 c 0,-0.77 0.51,-1.58 0.4,-2.32 L 50.89,20.41 A 16.35,16.35 0 0 0 49,20 c -0.29,0.63 -0.29,1.53 -0.55,2.25 l -2.11,-0.4 c 0,-0.74 0.23,-1.5 0.31,-2.25 a 10.36,10.36 0 0 0 -2.56,-0.48 12.55,12.55 0 0 0 -0.42,2.3 0.09,0.09 0 0 1 -0.06,0 l -2.19,-0.24 c -0.13,-0.74 0.13,-1.56 0,-2.32 a 11.47,11.47 0 0 0 -2.53,-0.13 c -0.13,0.18 0,0.43 -0.11,0.61 a 9,9 0 0 1 -0.05,1.72 h -1.22 v 5.4 h 0.4 a 49,49 0 0 1 12.71,1.69 H 37.51 v 37.07 l 0.16,0.23 M 37.48,21.04 h -0.92 c -0.11,-0.74 0,-1.53 -0.11,-2.3 a 23,23 0 0 0 -2.72,0.08 v 2.32 l -1.93,0.21 c -0.29,-0.68 -0.08,-1.66 -0.45,-2.29 -0.79,0.06 -1.56,0.18 -2.35,0.32 -0.13,0 -0.27,0 -0.34,0.1 0,0.77 0.29,1.53 0.32,2.24 L 28.27,21.85 27,22.11 c 0,0 0,0 -0.08,-0.08 -0.24,-0.69 -0.16,-1.5 -0.56,-2.11 A 18.9,18.9 0 0 0 23.7,20.6 c 0.05,0.71 0.37,1.43 0.47,2.16 l -1.82,0.5 c -0.05,-0.08 -0.08,-0.19 -0.13,-0.28 -0.13,-0.5 -0.34,-1 -0.47,-1.46 -0.05,-0.11 -0.05,-0.21 -0.18,-0.26 a 13.68,13.68 0 0 0 -1.79,0.61 7,7 0 0 0 -1.29,0.58 c 0.82,1.61 1.93,3.11 2.88,4.67 0.31,0.42 0.45,1 1,1.32 0.29,-0.05 0.61,-0.16 0.9,-0.19 v 17.4 c 0.1,2.82 -0.24,5.67 0.24,8.47 a 7.6,7.6 0 0 0 3.59,4.94 c 2.06,1 4.11,2 6.17,3 a 10,10 0 0 1 4.21,3.12 V 28.15 H 24.41 a 0.025,0 90 0 0 0,-0.05 36.92,36.92 0 0 1 4.17,-0.9 c 1.4,-0.24 2.74,-0.39 4.16,-0.53 1.22,-0.1 2.43,-0.18 3.64,-0.18 0.39,0 0.76,0 1.13,0 z"
       transform="translate(0.19)"
       id="path11" />
    <path
       class="cls-3"
       d="m 34,58.91 c 0,0 0,-0.11 0,-0.13 0,-0.02 0.06,0 0.08,-0.08 0,-0.21 -0.08,-0.5 0.08,-0.69 a 0.68,0.68 0 0 1 0.42,-0.42 4.6,4.6 0 0 1 0.93,-0.13 1.5,1.5 0 0 1 0.48,0 c 0.08,-0.05 0,-0.13 0,-0.21 0,-0.08 -0.15,0 -0.23,0 a 0.81,0.81 0 0 0 -0.45,0.06 c -0.05,0 -0.13,0 -0.21,0 a 2,2 0 0 0 -0.58,0.24 c -0.13,0 -0.21,0.13 -0.32,0.24 -0.11,0.11 -0.05,0.13 -0.08,0.19 -0.03,0.06 0,0 -0.08,0.05 v 0 l -0.13,0.27 c -0.08,0.21 0,0.4 0,0.61 l 0.05,0.05 z"
       transform="translate(0.19)"
       id="path13" />
    <path
       class="cls-4"
       d="m 37.78,63.78 c 2.79,-2.77 7.06,-3.69 10.57,-5.65 a 0.09,0.09 0 0 1 0.05,0 1.48,1.48 0 0 0 -0.45,-0.47 13.61,13.61 0 0 0 -8.78,-3.24 8.31,8.31 0 0 0 -0.95,0 0.57,0.57 0 0 0 -0.31,0 l -1.24,-0.06 c -0.13,0.08 -0.26,0 -0.4,0 a 13.3,13.3 0 0 0 -2.25,0.22 16.67,16.67 0 0 0 -1.84,0.47 c -0.4,0.16 -0.82,0.34 -1.24,0.5 a 8.38,8.38 0 0 0 -1.24,0.68 13.13,13.13 0 0 0 -2.1,1.57 c -0.13,0.06 -0.13,0.08 -0.16,0.16 2.69,1.45 5.62,2.77 8.28,4.27 a 9.87,9.87 0 0 1 2,1.59 z"
       transform="translate(0.19)"
       id="path15" />
    <path
       class="cls-2"
       d="m 37.7,61.57 c 0.43,0 0.71,-0.29 1,-0.35 0.19,0.21 0.45,0.16 0.68,0.19 0.23,0.03 0.51,-0.1 0.74,-0.19 a 3.17,3.17 0 0 0 0.74,-0.61 c 0.11,-0.19 0.32,-0.13 0.48,-0.23 0.26,0.13 0.58,-0.11 0.82,-0.21 a 2.41,2.41 0 0 0 1.16,-1.66 2.31,2.31 0 0 0 -0.69,-2.09 5.11,5.11 0 0 0 -2.45,-1 8.5,8.5 0 0 0 -1.37,-0.19 c -1.93,-0.1 -5.22,0.46 -5.83,1.11 -0.26,0.11 -0.32,0.29 -0.47,0.5 a 3.27,3.27 0 0 0 -0.27,1.93 2.33,2.33 0 0 0 1.37,1.47 1.75,1.75 0 0 0 0.64,0.13 c 0,0 0.05,0.05 0.05,0.08 0,0.03 0,0 0.05,0 l 0.29,0.23 c 0.23,0.08 0.42,0.21 0.68,0.29 a 1.49,1.49 0 0 0 1.34,0 2.23,2.23 0 0 0 0.53,0.34 c 0.13,0.16 0.32,0.08 0.47,0.16"
       transform="translate(0.19)"
       id="path17" />
    <path
       class="cls-4"
       d="m 37.78,61.39 a 1.33,1.33 0 0 0 0.84,-0.39 0.49,0.49 0 0 1 0.37,0.18 2.2,2.2 0 0 0 0.82,0 1.72,1.72 0 0 0 1,-0.64 0.66,0.66 0 0 1 0.43,-0.26 2,2 0 0 0 0.86,-0.28 2.3,2.3 0 0 0 1,-1.4 2.13,2.13 0 0 0 -0.53,-1.93 c -2,-1.35 -4.72,-1.29 -7,-0.95 -1,0.27 -2.16,0.48 -2.69,1.21 a 1.52,1.52 0 0 0 -0.42,1 2.06,2.06 0 0 0 0.48,1.63 0.75,0.75 0 0 0 0.16,0.19 3,3 0 0 0 1.21,0.56 0.52,0.52 0 0 1 0.34,0.21 l 0.18,0.13 c 0.47,0.26 1.19,0.63 1.74,0.34 0,-0.05 0,-0.11 0.08,-0.11 h 0.11 c 0.08,0 0.1,0.14 0.21,0.16 0.11,0.02 0.34,0.16 0.47,0.29 0.13,0.13 0.21,0 0.34,0.08"
       transform="translate(0.19)"
       id="path19" />
    <path
       class="cls-2"
       d="m 37.62,61 a 4,4 0 0 0 0.58,0 1.48,1.48 0 0 0 0.42,-0.21 l 0.18,0.13 c 0.27,0 0.48,0.21 0.76,0.09 a 2.16,2.16 0 0 0 1.08,-0.69 0.57,0.57 0 0 0 0.47,-0.13 l 0.18,-0.27 c 0.21,-0.58 0.82,-1.18 0.42,-1.84 A 1,1 0 0 1 41.63,57.82 2.19,2.19 0 0 0 40.97,57.29 2,2 0 0 0 39.44,57 l -0.4,-0.45 a 3.12,3.12 0 0 0 -2.13,-0.19 1.08,1.08 0 0 0 -0.63,0.53 0.35,0.35 0 0 1 0,0.23 0.72,0.72 0 0 0 -0.37,-0.31 0.78,0.78 0 0 0 -0.46,-0.06 1.81,1.81 0 0 0 -0.88,0.17 2.4,2.4 0 0 0 -1,0.93 2,2 0 0 0 0.16,1.58 c 0.29,0.5 0.82,0.66 1.24,0.9 0.08,0.21 0.32,0.26 0.5,0.34 a 3,3 0 0 0 1.1,0.13 l 0.27,-0.13 a 3.84,3.84 0 0 0 0.76,0.35 z"
       transform="translate(0.19)"
       id="path21" />
    <path
       class="cls-3"
       d="m 39.62,60.75 v 0 l 0.18,-0.18 0.71,-0.56 c 0.08,-0.08 0.2,0 0.34,-0.08 C 40.99,59.85 41,60 41,60 c 0.26,-0.16 0.26,-0.53 0.47,-0.77 0,0 -0.05,0.05 -0.08,0.05 a 0.06,0.06 0 0 1 -0.06,-0.05 1.58,1.58 0 0 0 -0.05,-1.06 c 0,0 -0.1,0 -0.1,-0.1 v -0.08 a 3.52,3.52 0 0 0 -0.58,-0.31 1.91,1.91 0 0 0 -1,-0.13 c 0,0 0,0 -0.05,0 -0.05,0 0,0 0,-0.06 0,-0.06 0.05,-0.1 0.1,-0.13 a 2.52,2.52 0 0 1 1.58,0.39 1.18,1.18 0 0 1 0.39,1.14 0.22,0.22 0 0 1 0,0.13 c 0.13,-0.15 0.08,-0.42 0.05,-0.63 0,0 0,-0.08 0,-0.1 0,-0.02 -0.24,-0.24 -0.18,-0.43 v 0 a 2.07,2.07 0 0 0 -1.84,-0.58 0.09,0.09 0 0 1 -0.08,0 0.3,0.3 0 0 0 -0.11,0.26 5.41,5.41 0 0 1 -0.68,2.82 v 0.08 c 0.1,0.1 0.26,0.16 0.4,0.28 0.14,0.12 0.37,0 0.5,0.08"
       transform="translate(0.19)"
       id="path23" />
    <path
       class="cls-3"
       d="m 37.67,60.62 a 1.14,1.14 0 0 0 0.87,-0.29 v -0.24 l 0.16,-0.26 a 3.33,3.33 0 0 0 0.4,-1.24 4.1,4.1 0 0 0 0.05,-1.5 C 39.1,57.01 39.07,56.85 38.97,56.82 a 3.07,3.07 0 0 0 -1.88,-0.26 1.55,1.55 0 0 0 -0.31,0.1 0.85,0.85 0 0 0 -0.35,0.53 7.23,7.23 0 0 0 0.08,1.48 2.71,2.71 0 0 0 0.48,1.4 v 0 A 3.1,3.1 0 0 1 37.1,59.2 c 0,0 0.1,0 0.13,0 v 0.29 c 0.35,0.06 0.74,-0.1 1,0.08 a 0.1,0.1 0 0 0 0,0.05 0.18,0.18 0 0 1 -0.13,0.1 c -0.23,-0.15 -0.53,0 -0.79,-0.05 -0.08,0 -0.1,0 -0.16,0 -0.1,0.19 0,0.4 0,0.61 a 0.21,0.21 0 0 0 0,0.14 l 0.11,0.05 V 60 a 0.08,0.08 0 0 0 0.05,0 v 0 a 0.81,0.81 0 0 1 0.06,0.5 v 0 z"
       transform="translate(0.19)"
       id="path25" />
    <path
       class="cls-3"
       d="m 36.07,60.54 a 1,1 0 0 0 0.77,-0.27 c 0.05,0 0.11,0 0.11,0.08 a 0.28,0.28 0 0 0 0,0.13 H 37 a 0.12,0.12 0 0 1 0,-0.08 2.1,2.1 0 0 1 -0.45,-0.72 0.21,0.21 0 0 0 -0.24,0.05 0.35,0.35 0 0 1 -0.29,0.16 c 0,0 -0.05,0 -0.08,-0.08 l 0.45,-0.32 c 0,0 0.05,0 0.08,0 l -0.21,-1.24 v 0 c -0.08,0 -0.16,0.13 -0.26,0.08 -0.1,-0.05 0,-0.1 0,-0.13 a 0.93,0.93 0 0 1 0.24,-0.16 2,2 0 0 0 0,-0.77 C 36.16,57.19 36.11,57.11 36.03,57.08 L 36,57.06 a 1.72,1.72 0 0 0 -1.61,0.16 1.58,1.58 0 0 0 -0.68,0.76 1.5,1.5 0 0 0 0,0.77 1.61,1.61 0 0 0 0.4,0.87 0.16,0.16 0 0 0 0.11,0.05 l 0.29,0.18 c 0,-0.05 -0.05,-0.08 -0.08,-0.13 -0.03,-0.05 0,-0.08 0.08,-0.1 L 35,60 v 0.08 c 0,0 0,0 0.06,0.06 0.06,0.06 0.18,-0.08 0.26,0 a 1.87,1.87 0 0 0 0.79,0.37"
       transform="translate(0.19)"
       id="path27" />
    <path
       class="cls-2"
       d="m 37.78,60.51 h 0.08 V 60.2 60.12 c 0,0 -0.08,0 -0.08,0 l -0.05,0.21 v 0.16 z"
       transform="translate(0.19)"
       id="path29" />
    <path
       class="cls-2"
       d="m 38.15,60.46 a 0.17,0.17 0 0 0 0.1,-0.16 v -0.23 c 0,0 0,0 0,-0.05 l -0.08,0.05 c 0,0 0,0 0,0.08 v 0.24 0.05 z"
       transform="translate(0.19)"
       id="path31" />
    <path
       class="cls-2"
       d="m 39.23,60.36 v 0 c 0.08,0 0.1,-0.11 0.13,-0.18 v 0 a 0.05,0.05 0 0 0 -0.05,-0.06 c 0,0 0,0 0,0 l -0.08,0.19 v 0.06 z"
       transform="translate(0.19)"
       id="path33" />
    <path
       class="cls-2"
       d="m 39,60.25 c 0.08,0 0.11,-0.1 0.16,-0.19 a 0.1,0.1 0 0 1 0,-0.05 0.08,0.08 0 0 1 -0.05,0 L 39,60.2 a 0.08,0.08 0 0 0 0,0.05 z"
       transform="translate(0.19)"
       id="path35" />
    <path
       class="cls-2"
       d="m 38.52,60 c 0.08,-0.11 0,-0.3 0,-0.42 a 0.73,0.73 0 0 1 -0.11,-0.32 v 0 h -0.08 z"
       transform="translate(0.19)"
       id="path37" />
    <path
       class="cls-2"
       d="m 39.55,59.93 a 0.09,0.09 0 0 1 0.05,0 v -0.16 a 0.71,0.71 0 0 1 -0.24,-0.15 0.37,0.37 0 0 0 -0.16,-0.06 0.17,0.17 0 0 0 0,0.16 2.27,2.27 0 0 0 0.32,0.24"
       transform="translate(0.19)"
       id="path39" />
    <path
       class="cls-2"
       d="m 40.91,59.83 v 0 c 0.06,-0.08 0.21,-0.16 0.16,-0.29 a 0.49,0.49 0 0 0 -0.23,0.21 v 0 0.08 z"
       transform="translate(0.19)"
       id="path41" />
    <path
       class="cls-2"
       d="m 39.71,59.44 v 0 c 0,0 0,-0.05 0.05,-0.05 L 39.71,59.31 39.5,59.15 a 4.24,4.24 0 0 0 0.53,-0.76 1,1 0 0 0 -0.55,-0.31 h -0.05 c 0,0 0,0.08 0,0.1 0,0.02 0.34,0.08 0.42,0.27 0.08,0.19 -0.29,0.37 -0.45,0.61 l 0.06,0.1 v 0.06 0.08 z"
       transform="translate(0.19)"
       id="path43" />
    <path
       class="cls-2"
       d="m 35.93,59.38 0.29,-0.11 a 0.12,0.12 0 0 0 0,-0.13 c 0,0 0,0 0,-0.08 V 59 l -0.45,-0.58 c 0,0 -0.05,0 -0.08,0 -0.03,0 0,0.13 0,0.18 l 0.45,0.53 -0.24,0.16 c 0,0 0,0 -0.05,0 v 0.08 z"
       transform="translate(0.19)"
       id="path45" />
    <path
       class="cls-2"
       d="M 40.52,59.09 H 40.6 V 59 c 0,-0.11 -0.18,-0.14 -0.26,-0.19 v 0 c 0,0 0,0 0,0.08 z"
       transform="translate(0.19)"
       id="path47" />
    <path
       class="cls-2"
       d="M 37.65,59.07 38,59 c 0,0 0,0 0.06,-0.08 0.06,-0.08 0,0 0,0 h -0.4 c -0.05,-0.29 0.11,-0.66 0,-1 h -0.05 a 3.67,3.67 0 0 0 -0.05,1 V 59 c 0,0 0.05,0 0.08,0"
       transform="translate(0.19)"
       id="path49" />
    <path
       class="cls-2"
       d="m 35.06,59 0.08,-0.06 c 0,0 0,0 0,-0.05 l 0.16,-0.08 c 0,0 0,-0.06 0,-0.08 0,-0.02 -0.08,0 -0.13,0 L 35,58.9 V 59 Z"
       transform="translate(0.19)"
       id="path51" />
    <path
       class="cls-2"
       d="m 40.84,59 v 0 a 0.09,0.09 0 0 0 0,-0.08 1.28,1.28 0 0 0 -0.46,-0.34 v 0 a 0.13,0.13 0 0 0 0,0.13 l 0.42,0.28 z"
       transform="translate(0.19)"
       id="path53" />
    <path
       class="cls-2"
       d="m 34.69,58.91 a 3,3 0 0 1 0.63,-0.35 0.08,0.08 0 0 0 0,-0.1 c -0.18,0 -0.37,0.13 -0.53,0.24 -0.16,0.11 -0.13,0.08 -0.15,0.13 z"
       transform="translate(0.19)"
       id="path55" />
    <path
       class="cls-2"
       d="m 39.66,58.56 a 0.09,0.09 0 0 0 0.05,0 c 0,0 0,-0.05 0,-0.08 0,-0.03 -0.16,-0.16 -0.29,-0.11 -0.13,0.05 0,0.06 0,0.08 z"
       transform="translate(0.19)"
       id="path57" />
    <path
       class="cls-2"
       d="M 35.77,58.17 36.2,58 a 0.08,0.08 0 0 0 0,-0.1 c -0.16,-0.06 -0.29,0.1 -0.43,0.18 -0.14,0.08 -0.05,0 -0.05,0.08 v 0.05 z"
       transform="translate(0.19)"
       id="path59" />
    <path
       class="cls-2"
       d="M 38.39,58.07 38.6,58 a 0.09,0.09 0 0 0 0,-0.05 l -0.05,-0.08 0.24,-0.06 c 0,0 0,0 0,-0.08 v 0 h -0.77 c 0,0 0,0.05 0,0.08 h 0.42 c 0,0 0,0 0,0 h -0.1 v 0.08 l 0.05,0.06 z"
       transform="translate(0.19)"
       id="path61" />
    <path
       class="cls-2"
       d="m 37,58 h 0.26 l 0.08,-0.08 v -0.08 a 0.3,0.3 0 0 1 0.21,0 c 0,0 0,0 0,0 v -0.16 h -0.79 c 0,0 0,0 0,0 0,0 0,0.05 0,0.07 0,0.02 0.15,0 0.21,0.06 0.06,0.06 0,0 0,0.08 z"
       transform="translate(0.19)"
       id="path63" />
    <path
       class="cls-3"
       d="m 48.59,57.88 a 2.08,2.08 0 0 0 0.95,-1 c 0.11,-0.5 0.24,-1 0.35,-1.5 H 49 c -0.26,0.72 -0.34,1.58 -0.58,2.32 z"
       transform="translate(0.19)"
       id="path65" />
    <path
       class="cls-3"
       d="m 27.2,57.85 0.66,-0.61 c 0,0 -0.13,-0.05 -0.13,-0.13 a 4.69,4.69 0 0 0 -0.24,-0.9 h -1 l 0.37,1.48 z"
       transform="translate(0.19)"
       id="path67" />
    <path
       class="cls-3"
       d="m 48.22,57.53 c 0,0 0,0 0,0 0.11,-0.42 0.21,-0.87 0.34,-1.32 h -0.92 l -0.23,0.71 z"
       transform="translate(0.19)"
       id="path69" />
    <path
       class="cls-3"
       d="m 26.51,57.32 -0.18,-0.61 -1.1,-4.22 h -0.9 a 7.59,7.59 0 0 0 1,3.43 8.24,8.24 0 0 0 0.95,1.19 c 0.05,0.1 0.16,0.13 0.23,0.21"
       transform="translate(0.19)"
       id="path71" />
    <path
       class="cls-2"
       d="m 37.39,57.32 0.24,-0.05 v 0 a 0.05,0.05 0 0 0 -0.05,0 h -0.32 v 0 c 0,0.06 0.08,0.06 0.13,0.08"
       transform="translate(0.19)"
       id="path73" />
    <path
       class="cls-2"
       d="m 38,57.32 0.4,-0.05 c 0,0 0,-0.06 0,-0.06 H 38 c 0,0 0,0 -0.05,0 L 38,57.26"
       transform="translate(0.19)"
       id="path75" />
    <path
       class="cls-2"
       d="m 37.86,57.22 v 0 -0.26 c 0,-0.05 -0.1,0 -0.13,0 v 0 l 0.16,0.24 z"
       transform="translate(0.19)"
       id="path77" />
    <polygon
       class="cls-3"
       points="28.76,55.53 27.79,55.56 28.18,57.14 28.21,57.12 29,56.53 "
       id="polygon79" />
    <polygon
       class="cls-3"
       points="47.76,55.45 47.73,55.42 46.91,55.45 46.72,56.24 47.41,56.74 47.44,56.74 47.44,56.72 "
       id="polygon81" />
    <path
       class="cls-3"
       d="m 49.91,56.56 a 2,2 0 0 0 0.45,-0.5 6.26,6.26 0 0 0 0.76,-3.67 h -0.29 c -0.35,1.37 -0.66,2.8 -0.95,4.2 z"
       transform="translate(0.19)"
       id="path83" />
    <polygon
       class="cls-3"
       points="29.16,56 29.27,56.4 29.79,56.05 "
       id="polygon85" />
    <path
       class="cls-3"
       d="M 46.29,56.16 A 1.16,1.16 0 0 0 46.4,55.84 H 45.85 Z"
       transform="translate(0.19)"
       id="path87" />
    <polygon
       class="cls-3"
       points="26.42,55.03 26.63,55.95 27.63,55.93 27.39,55 "
       id="polygon89" />
    <path
       class="cls-3"
       d="m 47.77,55.93 0.87,-0.06 a 4.36,4.36 0 0 0 0.24,-1.05 h -0.92 l -0.24,1 a 0.06,0.06 0 0 0 0.05,0.06"
       transform="translate(0.19)"
       id="path91" />
    <polygon
       class="cls-3"
       points="28.92,54.92 29.11,55.77 30.01,55.74 29.85,54.95 "
       id="polygon93" />
    <polygon
       class="cls-3"
       points="30.9,54.45 29.98,54.45 30.32,55.72 30.34,55.72 31.14,55.32 "
       id="polygon95" />
    <path
       class="cls-3"
       d="m 45.53,55.68 0.92,-0.1 0.18,-0.74 h -1.06 l -0.18,0.72 c 0,0 0,0 0,0 z"
       transform="translate(0.19)"
       id="path97" />
    <path
       class="cls-3"
       d="m 45.13,55.48 a 0.08,0.08 0 0 0 0.05,0 l 0.27,-1.08 a 3.22,3.22 0 0 0 -0.9,0 l -0.1,0.43 v 0.05 l -0.06,0.32 z"
       transform="translate(0.19)"
       id="path99" />
    <path
       class="cls-3"
       d="m 28.5,55.29 -0.21,-0.82 h -1 l 0.24,0.82 c 0.29,0 0.66,0 1,0"
       transform="translate(0.19)"
       id="path101" />
    <path
       class="cls-3"
       d="m 32,54.79 -0.82,0.08 c -0.08,0.05 0.06,0.24 0.08,0.32 A 5.37,5.37 0 0 0 32,54.8"
       transform="translate(0.19)"
       id="path103" />
    <path
       class="cls-3"
       d="m 49.94,55.19 v 0 l 0.21,-0.87 h -0.87 a 3.92,3.92 0 0 0 -0.23,0.82 c 0,0 0,0 0,0 0.24,0.1 0.58,-0.06 0.84,0"
       transform="translate(0.19)"
       id="path105" />
    <path
       class="cls-3"
       d="m 46.85,55.16 h 0.77 l 0.26,-0.8 a 3.35,3.35 0 0 0 -0.87,0 2.14,2.14 0 0 0 -0.18,0.82 z"
       transform="translate(0.19)"
       id="path107" />
    <path
       class="cls-3"
       d="M 44.27,55 V 54.74 L 43.4,54.68 A 6.77,6.77 0 0 0 44.25,55"
       transform="translate(0.19)"
       id="path109" />
    <polygon
       class="cls-3"
       points="33.41,54.42 33.38,54.37 32.38,54.34 32.54,54.77 32.56,54.71 "
       id="polygon111" />
    <polygon
       class="cls-3"
       points="25.79,52.52 26.26,54.73 27.32,54.73 26.79,52.52 "
       id="polygon113" />
    <path
       class="cls-3"
       d="m 28.6,54.71 h 0.95 L 29,52.6 a 6.21,6.21 0 0 0 -1,-0.05 15.4,15.4 0 0 0 0.58,2.16"
       transform="translate(0.19)"
       id="path115" />
    <polygon
       class="cls-3"
       points="30.71,52.63 31.22,54.63 32.25,54.66 31.77,52.68 "
       id="polygon117" />
    <polygon
       class="cls-3"
       points="42.5,54.45 42.53,54.47 43.19,54.66 43.24,54.66 43.35,54.34 42.56,54.34 42.53,54.37 "
       id="polygon119" />
    <path
       class="cls-3"
       d="m 46.69,54.58 0.45,-2 c 0,0 0,0 0,0 h -1 l -0.45,2 a 6.55,6.55 0 0 0 1,0 z"
       transform="translate(0.19)"
       id="path121" />
    <path
       class="cls-3"
       d="m 48,54.58 1,-0.06 0.48,-2.08 c 0,0 0,0 0,0 H 48.56 L 48,54.56 Z"
       transform="translate(0.19)"
       id="path123" />
    <path
       class="cls-3"
       d="m 43.5,54.56 h 0.73 a 17.24,17.24 0 0 0 0.48,-2 h -0.9 a 16.6,16.6 0 0 0 -0.42,1.87 z"
       transform="translate(0.19)"
       id="path125" />
    <polygon
       class="cls-3"
       points="33.17,52.63 33.54,54.48 34.36,54.31 33.96,52.66 "
       id="polygon127" />
    <path
       class="cls-3"
       d="m 42,54.4 h 0.08 l 0.08,-0.24 c 0,0 0,0 0,-0.05 a 10.49,10.49 0 0 0 0.32,-1.42 h -0.74 a 8.12,8.12 0 0 0 -0.42,1.56 z"
       transform="translate(0.19)"
       id="path129" />
    <path
       class="cls-3"
       d="m 34.48,54.26 0.84,-0.14 -0.42,-1.45 h -0.84 a 7.28,7.28 0 0 0 0.4,1.61 z"
       transform="translate(0.19)"
       id="path131" />
    <path
       class="cls-3"
       d="M 40.84,54.24 H 41 a 9.68,9.68 0 0 0 0.4,-1.48 h -0.84 a 7.76,7.76 0 0 0 -0.32,1.37 c 0.16,0.11 0.42,0.06 0.63,0.11"
       transform="translate(0.19)"
       id="path133" />
    <polygon
       class="cls-3"
       points="29.45,52.55 29.9,54.1 30.85,54.13 30.4,52.63 "
       id="polygon135" />
    <polygon
       class="cls-3"
       points="27.05,52.52 27.39,54.16 28.37,54.16 27.9,52.55 "
       id="polygon137" />
    <polygon
       class="cls-3"
       points="32.01,52.66 32.35,54.13 33.25,54.16 32.88,52.63 "
       id="polygon139" />
    <path
       class="cls-3"
       d="m 39.36,54.15 h 0.5 a 9.48,9.48 0 0 0 0.34,-1.29 v -0.08 h -0.79 a 3.21,3.21 0 0 0 -0.24,0.85 1.13,1.13 0 0 0 -0.08,0.42 z"
       transform="translate(0.19)"
       id="path141" />
    <path
       class="cls-4"
       d="m 37.91,54.13 h 0.87 c 0.58,-1.42 0.24,-2.9 0.32,-4.38 v -3.11 a 4.9,4.9 0 0 0 -1.1,-0.05 0.1,0.1 0 0 0 -0.08,0 0.32,0.32 0 0 0 -0.06,0.16 c 0.48,1.27 0.76,2.74 1.16,4 A 1.51,1.51 0 0 1 37.94,51.33 1.63,1.63 0 0 1 37.2,51.2 1.52,1.52 0 0 1 36.73,50.86 0.38,0.38 0 0 1 36.49,50.62 c 0.08,-0.42 0.21,-0.79 0.32,-1.21 0.26,-0.79 0.47,-1.69 0.71,-2.51 0,-0.13 0.08,-0.29 0,-0.39 -0.08,-0.1 0.05,-0.21 0.1,-0.32 a 0.19,0.19 0 0 1 0.16,0 l 0.13,0.08 h 1.13 a 1,1 0 0 0 0.06,-0.5 2.43,2.43 0 0 1 0,-0.42 c 0,-0.71 0,-1.39 0,-2.11 0,-0.95 0,-1.92 0,-2.87 -0.06,-0.45 0,-0.89 -0.06,-1.29 0.06,-0.24 0,-0.5 0.06,-0.69 a 0.89,0.89 0 0 1 0.37,-0.63 l 0.24,-0.18 0.32,-0.06 c 0.1,-0.34 -0.06,-0.77 0.08,-1.1 0.21,-0.08 0.52,0 0.76,0 0.42,0 0.9,-0.13 1.26,0.05 a 0.14,0.14 0 0 1 0.11,0.16 c 0,0.13 0,0.26 0,0.39 a 6.84,6.84 0 0 0 1.45,0 c 0.1,-0.11 0,-0.29 0.05,-0.45 a 0.32,0.32 0 0 1 0.11,-0.22 c 0,0 0.05,0 0.05,0 0.61,0.16 1.29,0 1.92,0.11 0.05,0 0.13,0 0.13,0.08 0,0.08 0,0.37 0.08,0.5 h 0.74 l 0.92,-0.05 v -0.53 c 0.23,-0.21 0.63,-0.08 0.94,-0.13 0.31,-0.05 0.87,-0.1 1.22,0.08 v 0 a 0.13,0.13 0 0 1 0.1,0.13 A 0.75,0.75 0 0 0 50,37 4.87,4.87 0 0 0 51.05,37 V 28.82 H 44.46 24.27 v 8.68 l 4.4,-0.45 0.45,-0.69 c 0,0 0,0 0.1,-0.05 0.21,0.16 0.29,0.47 0.5,0.66 a 18.33,18.33 0 0 0 3.06,-0.4 0.2,0.2 0 0 0 0.1,-0.1 0.35,0.35 0 0 0 0.11,-0.29 c 0,-0.13 0.07,-0.26 0.07,-0.4 l -0.34,-0.05 c 0,-0.26 0.15,-0.53 0.08,-0.81 l -0.47,0.05 -0.37,0.11 c -0.08,0 -0.11,-0.06 -0.13,-0.13 a 2.19,2.19 0 0 1 0,-0.71 0.37,0.37 0 0 1 0.16,-0.05 4.39,4.39 0 0 1 0.66,0.13 v 0 c 0.08,-0.29 -0.1,-0.61 -0.08,-0.9 a 0.2,0.2 0 0 1 0.16,-0.13 2.36,2.36 0 0 1 0.66,0.08 v 0.89 c 0.23,0.08 0.45,-0.24 0.66,-0.13 a 0.09,0.09 0 0 1 0.05,0 c 0.05,0 0.08,0 0.1,0.08 v 0.63 c -0.24,0.19 -0.52,0 -0.79,0 -0.1,0.27 0.21,0.61 0.06,0.87 h -0.24 v 0.71 l 0.08,0.05 1.82,3.22 c 0.05,-0.53 0,-1.06 0,-1.64 a 3.76,3.76 0 0 1 0,-0.55 c 0,0 -0.08,0 -0.1,0 -0.02,0 -0.06,-0.05 -0.08,-0.1 0.11,-0.32 0.32,-0.56 0.42,-0.9 0.11,-0.11 0.16,-0.19 0.29,-0.16 0.24,0.21 0.29,0.45 0.5,0.63 a 26.83,26.83 0 0 1 0.15,3.85 v 2.24 0 l 0.06,0.11 v 0 a 0.025,0 -180 0 0 0.05,0 0.21,0.21 0 0 1 0.13,0.21 c 0,0 0,0.08 0,0.13 l 0.13,-0.24 a 0.09,0.09 0 0 1 0.06,0 l 0.15,0.42 c 0.06,0.1 0,0.26 0,0.39 0,0.13 0,0.42 -0.11,0.63 a 2.87,2.87 0 0 1 -0.18,0.71 2.42,2.42 0 0 0 -0.26,1.5 c 0,1.84 0,3.69 0.08,5.57 0.16,0.4 0.13,0.95 0.32,1.42 0.34,0.08 0.74,0 1.13,0.08"
       transform="translate(0.19)"
       id="path143" />
    <path
       class="cls-3"
       d="m 35.56,54.1 h 0.9 l -0.21,-1.32 -1,-0.08 c 0,0.47 0.29,1 0.31,1.42 z"
       transform="translate(0.19)"
       id="path145" />
    <path
       class="cls-3"
       d="m 42.47,54.1 h 0.71 a 8.18,8.18 0 0 0 0.37,-1.42 h -0.82 l -0.34,1.37 c 0,0 0.05,0.05 0.08,0.05"
       transform="translate(0.19)"
       id="path147" />
    <path
       class="cls-3"
       d="m 44.76,54.1 h 0.71 a 9.14,9.14 0 0 0 0.37,-1.5 2.91,2.91 0 0 0 -0.82,0 6.32,6.32 0 0 0 -0.4,1.48 z"
       transform="translate(0.19)"
       id="path149" />
    <path
       class="cls-3"
       d="m 47.88,54 0.37,-1.53 c 0,0 0,0 0,0 H 47.43 L 47.06,54 c 0.05,0.1 0.74,0 0.82,0"
       transform="translate(0.19)"
       id="path151" />
    <path
       class="cls-3"
       d="m 50.2,54 a 12.51,12.51 0 0 0 0.37,-1.48 c 0,-0.08 0,-0.1 0,-0.16 H 49.75 A 8.16,8.16 0 0 0 49.33,54 v 0 z"
       transform="translate(0.19)"
       id="path153" />
    <path
       class="cls-3"
       d="m 39.41,52.55 h 1.21 v -0.61 c -0.13,-0.08 -0.29,0 -0.42,0 a 4.81,4.81 0 0 1 -0.84,0.05 v 0.58 z"
       transform="translate(0.19)"
       id="path155" />
    <polygon
       class="cls-3"
       points="41.05,49.62 41.1,52.5 41.47,52.5 "
       id="polygon157" />
    <path
       class="cls-3"
       d="m 41.73,52.47 3.51,-0.13 a 8.66,8.66 0 0 0 0.05,-1.63 7.57,7.57 0 0 1 0.08,-1.3 c 0,-0.23 0.11,-0.48 0,-0.69 0,0 0,-0.1 0,-0.16 0,-0.06 0,0 0.08,0 V 48.3 c -0.19,-0.16 -0.5,-0.16 -0.74,-0.32 -0.24,-0.16 -0.53,0 -0.69,-0.21 0,0 0,0 0,-0.05 0.11,0.9 0.58,1.88 0.66,2.8 v 0.1 c 0,0.11 -0.13,0.13 -0.18,0.21 a 1.55,1.55 0 0 1 -1.42,0.48 0.71,0.71 0 0 0 -0.24,-0.08 1.31,1.31 0 0 1 -0.42,-0.31 c -0.08,-0.16 -0.21,-0.27 -0.16,-0.43 a 29.08,29.08 0 0 0 1.08,-3.69 c 0,-0.08 0.05,-0.1 0,-0.13 l -1.13,-0.06 0.11,0.69 c 0.08,0.37 0.21,0.74 0.29,1 0,0.11 0.08,0.19 0,0.27 H 42.53 A 2.1,2.1 0 0 1 42.21,47.88 7.67,7.67 0 0 0 42,46.64 h -0.61 a 0.07,0.07 0 0 0 -0.06,0.11 c 0,0.84 0.16,1.66 0.27,2.51 0.11,0.85 0,0.08 0,0.08 A 4.93,4.93 0 0 0 41.73,49.92 7.73,7.73 0 0 0 42,51 c 0.16,0.26 0.16,0.63 0.4,0.84 0,0.06 0,0.06 0,0.08 v 0.1 a 0.09,0.09 0 0 1 -0.05,0 A 0.3,0.3 0 0 1 42.14,51.87 7.76,7.76 0 0 1 41.59,50.42 16.11,16.11 0 0 1 41,46.77 v -0.06 c -0.05,0 -0.08,0 -0.08,-0.08 a 0.15,0.15 0 0 0 -0.1,0 c -0.08,0.42 0,0.9 0,1.32 A 6.86,6.86 0 0 1 41,49.18 c 0.05,0.34 0.15,0.71 0.21,1 v 0 a 0.34,0.34 0 0 1 0,0.27 c 0.05,0.21 0.05,0.5 0.11,0.71 a 0.28,0.28 0 0 0 0.08,0.13 c 0,0 0,0.05 0,0 0,0.16 0,0.29 0,0.44 0,0.15 0.11,0.24 0.16,0.4 z"
       transform="translate(0.19)"
       id="path159" />
    <path
       class="cls-3"
       d="m 35.19,52.44 h 0.24 a 21.51,21.51 0 0 0 0.16,-2.56 c 0,-0.13 0,-0.23 -0.06,-0.34 -0.06,-0.11 -0.08,-0.13 -0.08,-0.21 0,-0.08 0,-0.13 0,-0.15 0,-0.02 0,-0.06 0,-0.06 0,0 0,-0.21 -0.05,-0.26 -0.05,-0.05 0,0 0,0 -0.08,0.29 0,0.58 -0.1,0.87 a 2.84,2.84 0 0 1 -0.11,0.68 c -0.19,0.66 -0.15,1.32 -0.34,2 z"
       transform="translate(0.19)"
       id="path161" />
    <path
       class="cls-3"
       d="m 34.06,52.44 h 0.36 a 3,3 0 0 0 0.37,-1 14,14 0 0 0 0.48,-2.93 c 0,0 0,0 0,0 -0.21,0.45 -0.21,1.08 -0.48,1.56 -0.27,0.48 -0.45,1.11 -0.63,1.63 a 3.41,3.41 0 0 0 -0.32,0.74 z"
       transform="translate(0.19)"
       id="path163" />
    <path
       class="cls-3"
       d="m 35.8,52.44 0.31,-0.06 c 0.06,-0.24 -0.1,-0.48 -0.05,-0.77 -0.08,-0.47 -0.11,-0.92 -0.21,-1.37 0,-0.05 -0.08,-0.08 -0.13,-0.14 -0.08,0.14 0,0.32 0,0.46 A 11.18,11.18 0 0 0 35.8,52 0.93,0.93 0 0 0 35.72,52.23 c 0,0.08 0,0.11 0,0.19 0,0.08 0,0.06 0.08,0.06"
       transform="translate(0.19)"
       id="path165" />
    <path
       class="cls-3"
       d="m 33.16,52.41 h 0.29 a 14.72,14.72 0 0 0 1.16,-2.59 c 0.27,-0.58 0.37,-1.21 0.58,-1.74 v -0.24 c 0,0 0,-0.06 0,-0.06 l -0.1,-0.74 v -0.1 a 4.2,4.2 0 0 0 -1,1 c -0.05,0.13 -0.08,0.27 -0.18,0.32 a 5.61,5.61 0 0 0 -0.31,1 c -0.05,0.35 -0.05,0.69 -0.13,1 0,0.06 -0.08,0 -0.1,0 a 6.55,6.55 0 0 1 0.13,-1.45 h -0.05 c -0.05,0 -0.05,0.1 -0.08,0.14 h -0.06 a 5.58,5.58 0 0 1 -0.58,1.21 c -0.16,0.34 -0.31,0.71 -0.5,1 0,0 0,0.08 0,0.1 l -0.08,0.05 A 0.05,0.05 0 0 1 32.1,51.26 c 0.24,-0.79 0.71,-1.45 1,-2.21 0,0 0,0 -0.05,0 l -0.43,0.37 v 0.08 c 0,0.05 -0.1,0.05 -0.1,0.1 0,0.05 0,0.06 0,0.08 -0.19,0.13 -0.27,0.37 -0.45,0.5 -0.15,0.29 -0.37,0.5 -0.5,0.79 A 7.91,7.91 0 0 0 31,52 c 0.08,0.16 -0.08,0.26 0,0.4 h 0.82 z"
       transform="translate(0.19)"
       id="path167" />
    <polygon
       class="cls-3"
       points="28.84,52.34 28.84,51.87 24.49,51.73 24.47,52.23 28.63,52.36 "
       id="polygon169" />
    <path
       class="cls-3"
       d="m 29,52.36 h 0.58 V 48.9 c 0,-2.95 0,-5.88 0,-8.83 0,-0.66 -0.1,-1.77 -0.05,-2.51 v 0 h -0.58 c -0.13,0.13 0,0.37 -0.06,0.56 0,0.76 0,1.53 0,2.27 0,0.47 0,1 0,1.45 v 3.66 l -0.11,1 0.11,4.5 a 5,5 0 0 0 0,1.27 h 0.05"
       transform="translate(0.19)"
       id="path171" />
    <path
       class="cls-3"
       d="m 30.1,52.36 h 0.66 A 2.14,2.14 0 0 1 31,51.6 1.89,1.89 0 0 1 31.19,51.13 2.83,2.83 0 0 0 30.5,51.74 c 0,0 0,0.08 -0.05,0.08 l -0.39,0.32 c 0,0 0,0.08 0,0.1 l -0.05,0.08 c 0,0 0.05,0 0.08,0"
       transform="translate(0.19)"
       id="path173" />
    <polygon
       class="cls-3"
       points="45.88,52.31 45.7,50.73 45.67,52.34 45.7,52.34 "
       id="polygon175" />
    <path
       class="cls-3"
       d="m 46,52.31 h 0.43 a 1.92,1.92 0 0 1 0.15,-0.45 6.42,6.42 0 0 1 0.27,-1 c 0,-0.1 0,-0.21 0.1,-0.31 a 5.18,5.18 0 0 0 0.24,-1.9 c 0.05,-0.13 0,-0.24 0,-0.34 a 2,2 0 0 0 -0.13,-0.32 c -0.18,-0.13 -0.4,-0.1 -0.61,-0.18 H 46.4 a 6,6 0 0 1 -0.29,2.54 0.9,0.9 0 0 1 -0.1,0.47 H 46 a 0.11,0.11 0 0 1 -0.1,-0.1 L 46,50 c -0.32,-0.44 0,-1.11 -0.32,-1.58 v 0 A 9.91,9.91 0 0 0 45.63,49.66 21.71,21.71 0 0 0 45.9,52 c 0.05,0.11 0,0.21 0.05,0.3 z"
       transform="translate(0.19)"
       id="path177" />
    <path
       class="cls-3"
       d="m 46.93,52.29 h 1 a 15.7,15.7 0 0 0 -0.42,-2.93 c 0,0 0,0 0.06,-0.05 a 0.15,0.15 0 0 0 0,-0.1 0.13,0.13 0 0 0 -0.13,0 1.41,1.41 0 0 1 -0.08,0.43 4.8,4.8 0 0 1 -0.16,1.05 8.12,8.12 0 0 1 -0.39,1.32 v 0 c 0,0 0,0 0.08,0 v 0.08 a 0.23,0.23 0 0 0 0,0.19 z"
       transform="translate(0.19)"
       id="path179" />
    <path
       class="cls-4"
       d="m 48.25,52.23 h 0.24 c 0.06,-0.26 0,-0.55 0,-0.84 0,-0.29 0,-0.87 0,-1.27 0,0 -0.08,0 -0.11,0 a 1.4,1.4 0 0 1 -0.42,0.56 l 0.19,1.5 c 0,0 0.05,0.05 0.08,0.05"
       transform="translate(0.19)"
       id="path181" />
    <path
       class="cls-3"
       d="m 48.83,52.2 2.27,-0.13 v -0.24 c -0.16,0 -0.31,0 -0.47,0 a 12.13,12.13 0 0 1 -1.4,0 c -0.18,0.05 -0.31,0 -0.47,0.05 v 0.34 z"
       transform="translate(0.19)"
       id="path183" />
    <path
       class="cls-3"
       d="M 29.92,52 A 12.55,12.55 0 0 0 31,50.92 c 0.05,0 0.05,-0.08 0.08,-0.08 0.27,-0.34 0.64,-0.71 0.9,-1.05 a 7.16,7.16 0 0 0 1.05,-2 3.82,3.82 0 0 1 0.19,-0.5 h -0.19 a 1.13,1.13 0 0 1 -0.21,0.53 c -0.16,0.34 -0.34,0.63 -0.52,1 a 10.51,10.51 0 0 1 -2.46,2.37 3,3 0 0 0 0,0.81 z"
       transform="translate(0.19)"
       id="path185" />
    <path
       class="cls-3"
       d="m 39.39,51.65 h 0.56 v -0.71 c -0.16,-0.11 -0.4,0 -0.58,0 v 0.68 c 0,0 0,0 0.05,0"
       transform="translate(0.19)"
       id="path187" />
    <path
       class="cls-3"
       d="m 40.26,51.65 h 0.34 a 2.52,2.52 0 0 0 0,-0.77 h -0.36 a 1.37,1.37 0 0 0 0,0.77 z"
       transform="translate(0.19)"
       id="path189" />
    <polygon
       class="cls-3"
       points="28.84,50.86 25.84,50.88 25.84,51.57 27.16,51.57 28.84,51.55 "
       id="polygon191" />
    <polygon
       class="cls-3"
       points="24.52,51.55 25.58,51.55 25.58,50.88 24.49,50.88 24.49,51.55 "
       id="polygon193" />
    <path
       class="cls-3"
       d="m 48.85,51.55 h 1 c 0.08,-0.13 0,-0.37 0,-0.55 0,-0.18 0,-0.08 0,-0.13 a 3.59,3.59 0 0 0 -1.05,0 c -0.11,0.21 0,0.47 0,0.71 0,0 0.08,0.05 0.1,0.05"
       transform="translate(0.19)"
       id="path195" />
    <path
       class="cls-3"
       d="m 51.1,51.52 v -0.71 a 5.9,5.9 0 0 0 -0.95,0 c -0.1,0.21 0,0.45 0,0.69 a 5.73,5.73 0 0 0 0.95,0"
       transform="translate(0.19)"
       id="path197" />
    <path
       class="cls-3"
       d="m 37.83,51.18 a 1.16,1.16 0 0 0 0.63,-0.21 h -1.24 a 1,1 0 0 0 0.61,0.18"
       transform="translate(0.19)"
       id="path199" />
    <path
       class="cls-3"
       d="m 43.39,51.13 a 1.13,1.13 0 0 0 0.76,-0.27 c -0.42,0 -0.9,0.06 -1.34,0 0,0 0,0 0,0.05 0,0.05 0.37,0.19 0.61,0.24"
       transform="translate(0.19)"
       id="path201" />
    <path
       class="cls-3"
       d="m 36.17,51 v -3.37 a 12.56,12.56 0 0 0 -0.29,1.4 c 0.05,0.23 0.08,0.5 0.13,0.74 A 10.4,10.4 0 0 1 36.17,51"
       transform="translate(0.19)"
       id="path203" />
    <path
       class="cls-3"
       d="m 29.87,51 v 0 c 0.19,-0.13 0.4,-0.32 0.61,-0.45 a 7.53,7.53 0 0 0 2.35,-3.22 C 32.59,47.25 32.36,47.22 32.09,47.12 31.82,47.02 31.9,47 31.74,47 a 3.49,3.49 0 0 1 -1.11,-0.77 c -0.21,0.13 -0.24,0.37 -0.4,0.53 -0.16,0.16 -0.16,0.39 -0.39,0.44 v 0.77 c 0,0 0,0 0,0 a 1.27,1.27 0 0 1 0.21,-0.5 0.18,0.18 0 0 1 0.1,-0.11 h 0.08 a 8.33,8.33 0 0 0 -0.32,1 c 0.29,-0.29 0.4,-0.68 0.74,-1 a 0.19,0.19 0 0 1 0.11,-0.1 v 0 c 0,0 0.05,-0.11 0.13,-0.11 0.08,0 0,0 0,0 l -0.27,0.4 A 6,6 0 0 0 29.92,49 c 0,0 0,0 -0.05,0.08 v 0.5 c 0,0 0.1,-0.11 0.13,-0.16 a 10.57,10.57 0 0 1 0.85,-1.35 1.6,1.6 0 0 0 0.29,-0.32 c 0,0 0,0 0.06,0 l 0.13,-0.08 v 0 0 a 0.09,0.09 0 0 1 0,0.05 c 0,0 0,0 0,0 a 7.65,7.65 0 0 1 -0.63,0.9 6.52,6.52 0 0 0 -0.71,1.27 c 0,0.07 -0.08,0.07 -0.08,0.13 v 0.16 c 0.42,-0.34 0.79,-1 1.32,-1.24 l 0.15,-0.19 a 3.14,3.14 0 0 0 0.87,-1.06 l 0.24,-0.1 c 0,0.24 -0.24,0.42 -0.34,0.63 a 2.55,2.55 0 0 1 -0.26,0.26 c -0.13,0.27 -0.5,0.48 -0.66,0.71 -0.16,0.23 -0.29,0.32 -0.48,0.42 -0.19,0.1 -0.4,0.32 -0.5,0.53 l -0.37,0.4 z"
       transform="translate(0.19)"
       id="path205" />
    <path
       class="cls-3"
       d="m 37.78,50.81 0.87,-0.05 c -0.05,0 -0.08,-0.11 -0.08,-0.11 h -1.5 c 0,0 -0.1,0.08 -0.08,0.11 z"
       transform="translate(0.19)"
       id="path207" />
    <path
       class="cls-3"
       d="m 24.3,50.65 h 2.16 c 0.11,-0.21 0,-0.47 0,-0.68 l -2.21,-0.08 v 0.79 z"
       transform="translate(0.19)"
       id="path209" />
    <path
       class="cls-3"
       d="m 43.18,50.65 a 4.81,4.81 0 0 0 0.61,0 h 0.34 c 0.08,0 0.26,-0.13 0.1,-0.13 a 10.17,10.17 0 0 0 -1.58,0 l 0.14,0.16 z"
       transform="translate(0.19)"
       id="path211" />
    <path
       class="cls-3"
       d="m 39.39,50.62 h 1.21 a 5.23,5.23 0 0 0 0,-0.82 4.72,4.72 0 0 0 -1.26,0 v 0.89 z"
       transform="translate(0.19)"
       id="path213" />
    <polygon
       class="cls-3"
       points="27,49.88 26.97,50.62 28.82,50.6 28.82,49.94 "
       id="polygon215" />
    <path
       class="cls-3"
       d="m 49.07,50.54 h 2 v -0.8 a 18.4,18.4 0 0 0 -2.37,0 2.52,2.52 0 0 0 0,0.79 z"
       transform="translate(0.19)"
       id="path217" />
    <path
       class="cls-4"
       d="m 36.81,50.49 0.74,-0.08 a 26.84,26.84 0 0 0 0.08,-2.88 l -0.84,3 z"
       transform="translate(0.19)"
       id="path219" />
    <path
       class="cls-4"
       d="m 38.55,50.49 h 0.16 a 29,29 0 0 0 -0.82,-3 c -0.08,0.95 -0.05,2 -0.08,2.93 0.21,0.13 0.5,0 0.74,0.1"
       transform="translate(0.19)"
       id="path221" />
    <path
       class="cls-3"
       d="m 47.93,50.44 a 2,2 0 0 0 0.55,-0.84 c -0.05,-1 0.24,-2.22 -0.24,-3.11 A 3.71,3.71 0 0 0 47.4,45.41 c -0.08,0.16 -0.14,0.32 -0.21,0.44 a 13.58,13.58 0 0 1 -0.9,1.48 c -0.05,0.07 -0.1,0.07 -0.13,0.13 0.13,0.1 0.34,0 0.5,0.12 a 2.08,2.08 0 0 0 0.37,0.06 c 0,-0.08 -0.08,-0.18 -0.11,-0.29 a 0.47,0.47 0 0 1 -0.18,-0.47 l 0.06,-0.06 c 0,0 0,0 0.05,0 a 4.93,4.93 0 0 1 0.42,0.71 c 0.19,-0.21 0.14,-0.61 0.4,-0.76 a 0.09,0.09 0 0 1 0.08,0.08 l -0.24,0.68 h 0.13 c 0.11,0 0.19,0.11 0.37,0.11 0,0.05 0,0.05 0.08,0.1 a 0.12,0.12 0 0 1 0,0.16 0.75,0.75 0 0 0 -0.37,-0.14 l -0.13,0.08 v 0.08 c 0.19,0 0.24,0.16 0.37,0.26 0.13,0.27 0.4,0.48 0.34,0.82 a 0.35,0.35 0 0 1 -0.08,0.1 c -0.08,0 -0.11,-0.13 -0.11,-0.21 a 2.82,2.82 0 0 0 -0.39,-0.58 c -0.05,-0.08 -0.13,-0.13 -0.18,-0.1 -0.05,0.03 0,0 0,0.05 z"
       transform="translate(0.19)"
       id="path223" />
    <path
       class="cls-3"
       d="m 42.6,50.39 0.84,-0.08 a 17.15,17.15 0 0 0 0,-2.63 7.39,7.39 0 0 0 -0.36,1 c -0.16,0.58 -0.37,1.14 -0.53,1.72 z"
       transform="translate(0.19)"
       id="path225" />
    <path
       class="cls-3"
       d="m 44.29,50.34 h 0.08 c 0.08,-0.19 -0.08,-0.46 -0.08,-0.66 -0.18,-0.66 -0.32,-1.29 -0.53,-1.93 v 0 2.48 c 0.13,0.11 0.37,0 0.53,0.11"
       transform="translate(0.19)"
       id="path227" />
    <path
       class="cls-3"
       d="m 28.6,49.65 v -0.77 a 27.47,27.47 0 0 0 -2.9,0 v 0.79 z"
       transform="translate(0.19)"
       id="path229" />
    <polygon
       class="cls-3"
       points="25.65,48.86 24.49,48.86 24.47,49.65 24.49,49.65 25.6,49.65 "
       id="polygon231" />
    <path
       class="cls-3"
       d="m 39.36,49.46 h 0.5 a 2.47,2.47 0 0 0 0.05,-0.77 c -0.16,-0.08 -0.4,0 -0.56,-0.05 z"
       transform="translate(0.19)"
       id="path233" />
    <path
       class="cls-3"
       d="m 40.2,49.46 h 0.36 a 4,4 0 0 0 0,-0.79 H 40.2 a 1.51,1.51 0 0 0 0,0.79"
       transform="translate(0.19)"
       id="path235" />
    <path
       class="cls-3"
       d="m 48.91,49.46 h 0.89 v -0.79 a 4.68,4.68 0 0 0 -1.08,0 v 0.79 c 0.05,0.05 0.13,0 0.19,0.05"
       transform="translate(0.19)"
       id="path237" />
    <path
       class="cls-3"
       d="m 50.12,49.44 h 1 v -0.77 h -1 a 2.37,2.37 0 0 0 -0.05,0.81"
       transform="translate(0.19)"
       id="path239" />
    <path
       class="cls-3"
       d="m 46.13,49.33 a 1.13,1.13 0 0 0 0.09,-0.34 c 0,-0.08 0.05,-0.13 0,-0.19 L 46,48.72 c 0,0 0,0 0,0 v 0.53 c 0,0 0,0 0.05,0 l 0.05,0.11 z"
       transform="translate(0.19)"
       id="path241" />
    <path
       class="cls-3"
       d="m 32.82,49 c 0.13,-0.06 0.24,-0.24 0.42,-0.29 a 1.25,1.25 0 0 0 0.45,-1.21 c 0,-0.08 0,-0.13 0,-0.18 0,-0.05 -0.08,0 -0.13,0 -0.16,0.18 -0.16,0.5 -0.27,0.68 a 3.87,3.87 0 0 1 -0.47,1 z"
       transform="translate(0.19)"
       id="path243" />
    <path
       class="cls-3"
       d="m 25.3,48.62 h 1.13 c 0.13,-0.18 0,-0.5 0.05,-0.74 a 0.33,0.33 0 0 0 0,-0.11 h -2.23 v 0.82 z"
       transform="translate(0.19)"
       id="path245" />
    <polygon
       class="cls-3"
       points="26.95,47.8 27,48.62 28.79,48.62 28.82,47.83 "
       id="polygon247" />
    <path
       class="cls-3"
       d="m 46.24,48.51 v 0 a 1,1 0 0 0 -0.16,-0.79 3,3 0 0 1 -0.61,-0.37 2.81,2.81 0 0 0 -0.66,-0.4 c 0,0 0.06,0.05 0.08,0.11 v 0.08 c -0.27,0 -0.53,-0.16 -0.79,-0.11 H 44 A 0.14,0.14 0 0 1 43.92,46.9 c 0,0 0,-0.08 0.08,-0.08 l 0.11,-0.05 c 0,0 0.05,-0.1 0.1,-0.1 0.63,-0.16 1.06,0.31 1.53,0.55 0.19,-0.13 0.24,-0.34 0.42,-0.5 0,-0.05 0,-0.05 0,-0.08 A 2.17,2.17 0 0 0 46.61,45.4 0.92,0.92 0 0 0 46.4,44.82 c -0.08,-0.08 -0.11,-0.16 -0.16,-0.18 -0.05,-0.02 -0.08,0 -0.11,0 l 0.09,0.39 a 0.39,0.39 0 0 0 0,0.19 2.51,2.51 0 0 0 -0.08,0.29 1.75,1.75 0 0 1 -0.53,0.79 0.38,0.38 0 0 0 -0.1,0.08 l -0.42,0.23 h -0.08 v -0.05 c 0.11,-0.16 0.34,-0.19 0.5,-0.34 a 0.84,0.84 0 0 0 0.32,-0.37 c -0.11,0 -0.13,0.19 -0.29,0.19 -0.16,0 -0.34,0.11 -0.53,0.18 0,0 0,0 -0.05,0 -0.05,0 -0.23,0 -0.37,-0.08 -0.14,-0.08 -0.16,-0.13 -0.18,-0.18 -0.02,-0.05 0,-0.1 0.08,-0.1 0.08,0 0.15,0.05 0.21,0.13 l 0.15,0.08 c 0.19,-0.05 0.45,0 0.55,-0.19 a 1.21,1.21 0 0 0 0.5,-0.88 1,1 0 0 0 0,-0.48 0.31,0.31 0 0 1 -0.08,-0.23 0.03,0 0 0 0 -0.06,0 c 0,0.19 -0.16,0.32 -0.13,0.48 l -0.13,0.08 a 0.26,0.26 0 0 1 -0.18,0.18 l -0.24,0.11 c -0.06,0 -0.06,0 -0.08,0 -0.02,0 -0.08,0 -0.08,-0.08 0,-0.08 0,-0.1 0.08,-0.13 a 0.71,0.71 0 0 0 0.48,-0.39 1.2,1.2 0 0 0 -0.08,-0.69 l 0.06,-0.11 c 0,0 0,0 0,0 0,0 -0.15,0.08 -0.18,0.19 v 0 l -0.29,0.22 A 2.49,2.49 0 0 1 44.12,44.04 C 44,44 44,44 44,44 c 0,0 -0.08,0.31 -0.08,0.47 0,0.16 0.19,0.29 0.26,0.45 0.07,0.16 0.32,0.1 0.37,0.29 v 0 c 0,0.05 -0.05,0.09 -0.11,0.11 -0.06,0.02 -0.42,-0.11 -0.55,-0.32 -0.13,-0.21 -0.08,-0.13 -0.11,-0.21 a 2.53,2.53 0 0 0 -0.11,-0.3 c -0.19,0.11 -0.1,0.4 -0.13,0.58 a 1.76,1.76 0 0 0 0.61,1 v 0.1 c -0.13,0 -0.24,-0.1 -0.32,-0.15 a 4.42,4.42 0 0 1 -0.47,-0.74 c 0,-0.08 -0.11,-0.18 -0.05,-0.27 l 0.08,-0.05 v -0.23 a 0.11,0.11 0 0 1 -0.11,-0.06 1.43,1.43 0 0 0 0,1.08 0.44,0.44 0 0 1 0.16,0.23 v 0.08 a 0.18,0.18 0 0 1 -0.16,0 C 43.1,45.95 43.12,45.74 43.02,45.61 a 3.22,3.22 0 0 1 0,-0.73 c -0.08,0 -0.16,0.1 -0.21,0.15 0,0.27 -0.06,0.56 0.1,0.79 0,0.08 0,0.13 0,0.16 a 0.09,0.09 0 0 1 -0.08,0 c -0.13,-0.05 -0.16,-0.21 -0.18,-0.34 -0.02,-0.13 0,-0.19 0,-0.29 h -0.06 l -0.16,0.26 0.18,0.29 a 0.69,0.69 0 0 0 0.11,0.32 0.08,0.08 0 0 0 0.05,0 h 0.85 c 0,0 0.08,-0.13 0.15,-0.16 h 0.11 c 0.05,0.11 0.16,0.23 0.11,0.37 -0.05,0.14 -0.08,0.11 -0.11,0.13 l 0.16,0.71 a 0.08,0.08 0 0 0 0.05,0 l -0.08,-0.16 0.08,-0.08 a 1.11,1.11 0 0 1 0.66,0.16 0.11,0.11 0 0 1 0,0.13 c 0,0 0,0 0,0 0,0 0.11,0 0.13,0.1 0.02,0.1 0,0.11 -0.08,0.11 h -0.19 c 0,0 0,0 0,-0.06 h -0.29 c 0,0 -0.05,0 0,0 0.53,0.21 1.21,0.21 1.58,0.61 0.18,0.1 0.32,0.21 0.5,0.31 z"
       transform="translate(0.19)"
       id="path249" />
    <path
       class="cls-3"
       d="m 40.57,48.41 v 0 -0.71 h -1.23 v 0.68 c 0.13,0.09 0.37,0 0.56,0 a 4.7,4.7 0 0 1 0.67,0"
       transform="translate(0.19)"
       id="path251" />
    <path
       class="cls-3"
       d="m 35.67,48.38 c 0.18,-0.76 0.37,-1.53 0.5,-2.29 l 0.1,-0.5 c 0.32,-0.24 0.29,-0.71 0.42,-1.11 a 3.31,3.31 0 0 0 0.06,-0.71 H 36.7 l -0.13,0.48 -0.06,0.05 -0.05,0.08 c 0,0 0,0 0,0 l 0.05,-0.58 -0.1,0.37 h -0.08 c -0.08,-0.24 0.11,-0.5 0.06,-0.79 l -0.13,0.4 c 0,0 -0.05,0 -0.08,0 l -0.06,0.32 c 0,0 0,0 -0.05,0 C 36.02,44.1 36,44 36,43.94 c 0,-0.06 0.13,-0.24 0.08,-0.34 -0.26,0.42 -0.08,1 -0.24,1.45 a 4.44,4.44 0 0 1 -0.37,1.06 0.56,0.56 0 0 0 -0.13,0.08 0.49,0.49 0 0 0 -0.05,0.18 v 0.32 l 0.05,0.05 c -0.05,0.29 0.11,0.56 0,0.87 a 3.87,3.87 0 0 0 0.29,0.76 z"
       transform="translate(0.19)"
       id="path253" />
    <path
       class="cls-3"
       d="m 49.8,48.38 h 1.3 v -0.71 h -2.37 a 1.55,1.55 0 0 0 0,0.71 z"
       transform="translate(0.19)"
       id="path255" />
    <path
       class="cls-3"
       d="m 33.88,47.75 0.31,-0.39 a 4.23,4.23 0 0 0 -0.52,-1.09 l 0.18,1.48 z"
       transform="translate(0.19)"
       id="path257" />
    <polygon
       class="cls-3"
       points="24.49,46.72 24.47,47.51 25.63,47.51 25.65,46.67 "
       id="polygon259" />
    <polygon
       class="cls-3"
       points="28.79,46.69 25.91,46.67 25.91,47.51 28.79,47.51 28.82,46.72 "
       id="polygon261" />
    <path
       class="cls-3"
       d="M 39.34,47.43 H 39.9 V 46.7 c 0,0 0,-0.06 0,-0.06 h -0.56 z"
       transform="translate(0.19)"
       id="path263" />
    <path
       class="cls-3"
       d="m 40.57,47.4 v 0 -0.73 c -0.1,-0.11 -0.29,0 -0.39,-0.08 v 0.77 z"
       transform="translate(0.19)"
       id="path265" />
    <path
       class="cls-3"
       d="m 44.37,47.4 c 0,0 0,0 0.05,0 h 0.08 a 0.25,0.25 0 0 0 -0.29,0 v 0 a 0.32,0.32 0 0 0 0.16,0"
       transform="translate(0.19)"
       id="path267" />
    <path
       class="cls-3"
       d="m 48.85,47.38 h 1 v 0 -0.72 l -1.16,-0.05 v 0.74 c 0,0.05 0.1,0 0.15,0.05"
       transform="translate(0.19)"
       id="path269" />
    <path
       class="cls-3"
       d="M 50.36,47.38 H 51.1 V 46.7 a 3.75,3.75 0 0 0 -1,-0.06 c -0.1,0.21 0,0.48 0,0.72 z"
       transform="translate(0.19)"
       id="path271" />
    <path
       class="cls-3"
       d="m 34.35,47.22 0.13,-0.13 c 0,-0.21 -0.21,-0.29 -0.32,-0.45 A 1.57,1.57 0 0 1 34,46.49 l 0.32,0.71"
       transform="translate(0.19)"
       id="path273" />
    <path
       class="cls-3"
       d="m 46.08,47.16 h 0.11 L 46.4,46.87 46.13,47 46.05,47.16"
       transform="translate(0.19)"
       id="path275" />
    <path
       class="cls-3"
       d="m 33.24,47.11 v 0 c 0,-0.05 0.06,0 0,-0.05 a 9,9 0 0 1 -1.08,-0.39 c -0.16,0 -0.24,-0.13 -0.42,-0.16 A 5.45,5.45 0 0 1 31,46 c -0.06,0 -0.06,0 -0.06,0 a 4.44,4.44 0 0 0 2.32,1.06"
       transform="translate(0.19)"
       id="path277" />
    <path
       class="cls-3"
       d="m 33.53,47 c 0,0 0,-0.08 0,-0.08 l -0.24,-0.16 h -0.13 c 0,0 0,0 -0.05,0 a 5.55,5.55 0 0 1 -2.3,-1.56 0.38,0.38 0 0 0 -0.35,0 v 0 c 0.08,0.16 0.21,0.26 0.29,0.42 a 13.28,13.28 0 0 0 1.11,0.74 5.76,5.76 0 0 0 1.14,0.42 c 0.13,0 0.21,0.08 0.32,0.11 l 0.1,-0.06 c 0,0 0,0 0.05,0 l 0.08,0.13 z"
       transform="translate(0.19)"
       id="path279" />
    <path
       class="cls-4"
       d="m 34.64,46.93 a 2.06,2.06 0 0 0 0.52,-0.81 7.08,7.08 0 0 0 0,-1.08 l -0.63,1.77 0.05,0.13 z"
       transform="translate(0.19)"
       id="path281" />
    <path
       class="cls-3"
       d="m 44.53,46.9 h 0.08 v 0 h -0.1"
       transform="translate(0.19)"
       id="path283" />
    <path
       class="cls-4"
       d="m 29.87,46.72 h 0.08 c 0.18,-0.18 0.27,-0.45 0.45,-0.66 h 0.05 v -0.12 c 0,0 0,0 -0.06,0 a 1.21,1.21 0 0 1 -0.13,-0.9 c 0.1,-0.13 0.31,-0.13 0.47,-0.13 0,0 0,0 0,-0.05 a 4.35,4.35 0 0 0 -0.63,-0.95 1.53,1.53 0 0 1 -0.26,-0.45 8,8 0 0 0 0,1.47 v 1.85 z"
       transform="translate(0.19)"
       id="path285" />
    <path
       class="cls-4"
       d="m 33.48,46.67 v 0 a 2,2 0 0 0 -0.37,-1.1 0.11,0.11 0 0 1 0,-0.08 h 0.05 c 0.24,0.24 0.37,0.61 0.74,0.77 0.13,0.08 0.16,0.19 0.24,0.26 l 0.61,-1.68 a 0.32,0.32 0 0 0 -0.1,-0.08 0.29,0.29 0 0 1 0,-0.21 c 0.05,-0.1 0.21,-0.08 0.29,-0.19 0.11,-0.28 0.18,-0.58 0.29,-0.89 0.11,-0.31 0.18,-0.48 0.1,-0.69 a 0.8,0.8 0 0 0 -0.29,-0.45 0.56,0.56 0 0 0 -0.69,0.08 0.8,0.8 0 0 0 -0.16,0.63 c 0.06,0.19 0.18,0.24 0.34,0.32 l 0.24,-0.05 v 0 a 0.43,0.43 0 0 1 -0.31,-0.24 1,1 0 0 1 0,-0.26 0.39,0.39 0 0 1 0.29,-0.13 0.52,0.52 0 0 1 0.27,0.32 c 0.08,0.11 0,0.24 0.05,0.34 a 0.68,0.68 0 0 1 -0.34,0.37 0.61,0.61 0 0 1 -0.61,-0.08 1,1 0 0 1 -0.39,-0.79 0.94,0.94 0 0 1 0.37,-0.66 1.23,1.23 0 0 0 0.34,-0.26 1.36,1.36 0 0 0 0.31,-0.05 h 0.34 a 0.05,0.05 0 0 0 0.05,-0.05 V 41.6 a 9.27,9.27 0 0 0 -2.45,-0.12 1.37,1.37 0 0 1 0.45,1 c -0.1,0.26 0.08,0.48 0,0.74 -0.08,0.26 0.18,0.32 0.24,0.5 l 0.13,0.37 c 0,0.08 -0.05,0.11 -0.13,0.11 -0.08,0 -0.13,0 -0.18,0 l -0.05,0.58 -0.11,0.37 -0.1,0.13 c 0,0 -0.11,0 -0.18,0 -0.16,0.24 0,0.53 0,0.77 l -0.08,0.1 a 0.5,0.5 0 0 0 0.37,0.19 l -0.16,-0.71 c 0,-0.06 0.08,-0.08 0.11,-0.06 h 0.08 l 0.16,0.82 z"
       transform="translate(0.19)"
       id="path287" />
    <polygon
       class="cls-3"
       points="26.65,45.63 24.49,45.63 24.47,46.43 24.54,46.43 26.65,46.43 "
       id="polygon289" />
    <polygon
       class="cls-3"
       points="26.91,45.63 26.95,46.43 28.76,46.43 28.79,45.66 "
       id="polygon291" />
    <path
       class="cls-4"
       d="m 48.46,46.38 c 0,-1.13 0,-2.25 -0.05,-3.38 -0.08,-0.19 0,-0.35 -0.14,-0.53 A 2.57,2.57 0 0 0 48.03,41.86 4.9,4.9 0 0 0 46.9,40.4 10.38,10.38 0 0 0 45.64,39.79 c -0.16,0 -0.37,-0.11 -0.53,-0.11 a 0.67,0.67 0 0 0 -0.45,0 L 44.5,39.63 h -0.08 a 4.66,4.66 0 0 0 -0.95,0.26 4.42,4.42 0 0 0 -2.32,1.93 c -0.1,0.26 -0.31,0.47 -0.31,0.76 0,0 0.1,0.08 0.16,0.06 a 0.49,0.49 0 0 1 0.47,0.23 6.41,6.41 0 0 1 0.37,1.58 l -0.05,0.07 c 0,0 0.08,0.06 0.1,0.11 0.02,0.05 0.06,0.23 0.08,0.37 a 1.83,1.83 0 0 0 0.18,0.37 0.09,0.09 0 0 0 0.05,0 l 0.1,-0.08 a 2.29,2.29 0 0 1 0.53,-0.61 c 0.27,-0.26 0.69,-0.47 0.87,-0.76 l 0.05,-0.05 -0.29,-0.08 c -0.1,0 -0.1,-0.13 -0.18,-0.21 a 1.82,1.82 0 0 1 0,-0.77 c 0.16,-0.39 0,-0.79 0.1,-1.18 0,0 0,0 0,-0.06 l -0.61,-0.86 -0.08,-0.27 a 0.26,0.26 0 0 1 0.13,-0.18 3.8,3.8 0 0 1 0.82,0.39 c 0,0.06 0,0.08 0,0.13 h 0.45 c 0,-0.05 -0.05,-0.08 -0.05,-0.14 L 44,40.5 l 0.37,-0.55 0.18,-0.08 c 0.21,0.11 0.24,0.37 0.43,0.5 0,0.05 0,0.08 0.05,0.1 a 0.11,0.11 0 0 1 -0.11,0.11 v 0.13 l 0.42,0.1 v -0.13 c 0.18,-0.21 0.55,-0.18 0.79,-0.36 a 0.13,0.13 0 0 1 0.1,0.08 4.3,4.3 0 0 1 -0.47,1 1.34,1.34 0 0 1 -0.08,0.14 1.38,1.38 0 0 1 0.21,0.87 c 0,0.28 0.27,0.44 0.16,0.73 a 1.3,1.3 0 0 1 -0.05,0.19 1.75,1.75 0 0 0 -0.21,0.22 0.18,0.18 0 0 0 -0.16,0.1 v 0 c 0.11,0.08 0.24,0.16 0.26,0.32 a 3,3 0 0 1 0.58,0.29 13.51,13.51 0 0 1 1.17,1 c 0.29,0.34 0.45,0.71 0.73,1.08 z"
       transform="translate(0.19)"
       id="path293" />
    <path
       class="cls-3"
       d="m 39.34,46.35 h 1.21 a 2,2 0 0 0 0,-0.66 9.94,9.94 0 0 0 -1.23,-0.05 2.12,2.12 0 0 0 0,0.69 z"
       transform="translate(0.19)"
       id="path295" />
    <path
       class="cls-3"
       d="m 41.36,46.35 h 0.5 a 5.66,5.66 0 0 0 -0.21,-1.45 3.39,3.39 0 0 0 -0.29,1.45 z"
       transform="translate(0.19)"
       id="path297" />
    <path
       class="cls-3"
       d="M 46.72,46.32 46.93,46 47.15,45.37 47.2,45.32 a 0.26,0.26 0 0 0 0.05,-0.11 c -0.13,-0.26 -0.4,-0.34 -0.61,-0.5 0,0 -0.05,0 -0.08,-0.08 v 0 c 0.11,0.18 0.18,0.29 0.27,0.44 a 3,3 0 0 1 -0.14,1.24 h 0.08 z"
       transform="translate(0.19)"
       id="path299" />
    <path
       class="cls-3"
       d="m 49,46.35 h 2.11 v -0.66 h -2.4 a 1.76,1.76 0 0 0 0,0.66 z"
       transform="translate(0.19)"
       id="path301" />
    <path
       class="cls-3"
       d="m 40.91,46.32 v 0 l 0.05,-0.13 h 0.11 a 1.4,1.4 0 0 0 0.05,-0.74 c -0.05,0 -0.05,0 -0.08,0.05 v -0.24 a 0.24,0.24 0 0 0 0,-0.19 v -0.28 c -0.13,0.31 0,0.68 -0.16,1 a 5.13,5.13 0 0 0 0,0.61 z"
       transform="translate(0.19)"
       id="path303" />
    <path
       class="cls-3"
       d="m 42.21,46.32 h 0.1 c 0,-0.08 -0.1,-0.13 -0.15,-0.19 -0.05,-0.06 0,0.1 0,0.19 z"
       transform="translate(0.19)"
       id="path305" />
    <path
       class="cls-3"
       d="m 32.53,46.22 v 0 l -0.08,-0.71 -0.71,-0.37 -0.24,-0.4 c -0.05,0 0,0.05 -0.08,0.08 -0.08,0.03 0,-0.08 -0.05,-0.11 -0.05,-0.03 -0.11,0 -0.13,0 a 0.15,0.15 0 0 0 0,0.1 v 0 l -0.05,0.37 a 3.78,3.78 0 0 0 1.34,1"
       transform="translate(0.19)"
       id="path307" />
    <path
       class="cls-3"
       d="m 42.23,46 v 0 a 0.11,0.11 0 0 0 -0.05,-0.11 c 0,0 0,0.08 0,0.11 z"
       transform="translate(0.19)"
       id="path309" />
    <path
       class="cls-3"
       d="m 42.1,45.72 c 0,0 0,0 0.06,0 0.06,0 0,0 0,0 l -0.08,-0.05 v 0 a 0.19,0.19 0 0 0 0,0.11 z"
       transform="translate(0.19)"
       id="path311" />
    <path
       class="cls-3"
       d="m 45.92,45.56 v 0 c 0,0 0,0 0.06,-0.08 0.06,-0.08 0,0 0,0 h -0.05 c 0,0 0,0.05 -0.05,0.08 a 0.06,0.06 0 0 0 0.05,0.05"
       transform="translate(0.19)"
       id="path313" />
    <path
       class="cls-3"
       d="M 35.46,45.51 A 1.25,1.25 0 0 0 35.62,44.98 4.28,4.28 0 0 1 36,43.24 c 0.27,-0.42 0.11,-1 0.13,-1.45 l -0.58,-0.13 c -0.08,0.1 0,0.26 -0.05,0.39 0.34,0.21 0.18,0.73 0.42,1 a 0.38,0.38 0 0 1 0,0.16 c 0,0.05 -0.05,0.08 -0.1,0.08 l -0.19,0.29 a 2.93,2.93 0 0 1 -0.18,0.63 1.19,1.19 0 0 0 -0.08,0.18 c 0,0 0,0 0.08,0.05 l 0.08,0.21 a 2,2 0 0 0 -0.05,0.87 z"
       transform="translate(0.19)"
       id="path315" />
    <polygon
       class="cls-3"
       points="25.84,44.63 25.84,45.37 28.76,45.37 28.82,44.63 "
       id="polygon317" />
    <polygon
       class="cls-3"
       points="25.58,44.66 24.49,44.63 24.49,45.35 25.54,45.38 "
       id="polygon319" />
    <path
       class="cls-3"
       d="m 40.52,45.4 c 0,0 0,0 0,0 v -0.74 h -0.4 a 6.71,6.71 0 0 0 0,0.71 0.08,0.08 0 0 0 0.05,0 z"
       transform="translate(0.19)"
       id="path321" />
    <path
       class="cls-3"
       d="m 39.34,45.37 h 0.53 l 0.05,-0.69 a 1.15,1.15 0 0 0 -0.61,-0.05 v 0.74 z"
       transform="translate(0.19)"
       id="path323" />
    <path
       class="cls-3"
       d="m 48.72,45.37 h 1.05 c 0.13,-0.21 0,-0.53 0,-0.77 h -1.05 a 1.57,1.57 0 0 0 0,0.74 z"
       transform="translate(0.19)"
       id="path325" />
    <path
       class="cls-3"
       d="m 50.17,45.37 h 0.92 V 44.6 h -1 c -0.11,0.21 0,0.47 0,0.72 0,0 0,0 0.08,0"
       transform="translate(0.19)"
       id="path327" />
    <path
       class="cls-3"
       d="m 32.35,45.19 h 0.34 c 0,-0.05 0.08,0 0.13,0 0.05,0 0,0 0,-0.06 h 0.06 l 0.08,-0.26 H 32.7 c 0,0 -0.08,-0.06 -0.08,-0.08 v -0.08 h 0.29 a 0.34,0.34 0 0 0 0,-0.34 c 0,0 0,-0.05 -0.05,-0.08 -0.05,-0.03 0,0 0,-0.06 L 33.17,44.15 33,43.32 c -0.13,-0.05 -0.26,0 -0.4,0 -0.14,0 -0.24,0.08 -0.29,0.13 -0.05,0.05 -0.08,0 -0.1,-0.08 -0.02,-0.08 0.05,-0.11 0.13,-0.13 a 4,4 0 0 1 0.61,-0.19 v -0.32 c -0.13,-0.1 -0.34,0 -0.53,0.06 a 3.69,3.69 0 0 1 -0.58,0.23 l -0.08,0.42 h -0.08 l -0.08,0.37 h -0.06 l -0.13,-0.08 c 0,0 0,0 -0.06,0 a 0.24,0.24 0 0 0 0,0.26 c 0.06,0.08 0.13,0.11 0.18,0.18 h 0.16 l 0.06,0.08 -0.08,0.1 -0.05,0.08 c 0.21,0.16 0.19,0.5 0.53,0.53 l 0.21,0.05"
       transform="translate(0.19)"
       id="path329" />
    <path
       class="cls-3"
       d="m 40.81,45 0.15,-0.53 c 0,-0.05 -0.1,-0.11 -0.15,-0.11 z"
       transform="translate(0.19)"
       id="path331" />
    <path
       class="cls-3"
       d="m 41.36,45 a 0.79,0.79 0 0 0 0.15,-0.43 v -0.08 -0.11 c 0,0 0,0 0,0 0,-0.26 -0.13,-0.52 -0.13,-0.82 a 3.07,3.07 0 0 0 -0.16,-0.55 l -0.16,-0.08 c -0.08,0.1 0.11,0.21 0.14,0.31 0.03,0.1 -0.14,0.32 -0.05,0.45 0.09,0.13 0.08,0.05 0.08,0.1 0,0.05 0,0.08 -0.08,0.08 v 0 c -0.11,0 -0.18,-0.16 -0.22,-0.29 v -0.05 a 0.82,0.82 0 0 1 -0.31,-0.37 c 0,0 0,0 0,0 l 0.15,0.29 c 0,0.05 0.11,0.1 0.13,0.19 0.02,0.09 0,0 0,0.08 0,0.08 -0.24,-0.19 -0.31,-0.32 l 0.18,0.4 -0.05,0.08 v 0.05 a 0.42,0.42 0 0 0 0.16,0.11 0.2,0.2 0 0 1 0.19,0.13 2,2 0 0 1 0.24,0.58 0.93,0.93 0 0 1 0.11,0.24"
       transform="translate(0.19)"
       id="path333" />
    <path
       class="cls-3"
       d="m 31,44.58 v 0 l 0.08,-0.06 h 0.11 a 0.1,0.1 0 0 0 0.1,-0.06 c 0,-0.1 -0.13,-0.16 -0.13,-0.29 a 0.55,0.55 0 0 1 -0.08,-0.53 c 0.08,-0.16 0.21,-0.19 0.37,-0.24 l 0.05,-0.13 0.08,-0.05 c 0,0 0,-0.05 0,-0.05 a 3.31,3.31 0 0 0 -1.09,0.63 0.52,0.52 0 0 0 0.13,0.19 v 0.16 l 0.11,0.29 z"
       transform="translate(0.19)"
       id="path335" />
    <path
       class="cls-3"
       d="m 40.5,44.45 v 0 -0.21 l -0.18,-0.58 h -0.98 a 3.29,3.29 0 0 0 0,0.71 c 0.37,0.13 0.79,0 1.19,0.11"
       transform="translate(0.19)"
       id="path337" />
    <polygon
       class="cls-3"
       points="24.49,43.63 24.46,44.37 26.63,44.37 26.7,43.69 "
       id="polygon339" />
    <path
       class="cls-3"
       d="m 28.6,44.32 v -0.79 c -0.1,0.06 -0.05,0.11 0,0.11 a 1.5,1.5 0 0 1 -0.52,0 l -1.35,0.05 v 0.63 z"
       transform="translate(0.19)"
       id="path341" />
    <path
       class="cls-3"
       d="m 48.72,44.34 h 2.38 v -0.73 h -2.4 a 1.55,1.55 0 0 0 0,0.73 z"
       transform="translate(0.19)"
       id="path343" />
    <path
       class="cls-3"
       d="m 45.71,44.08 v 0 V 44 c 0,0 0,0 -0.08,0 v 0.1 z"
       transform="translate(0.19)"
       id="path345" />
    <path
       class="cls-3"
       d="m 44.5,43.94 0.47,-0.05 c 0.06,0 0,-0.08 0.06,-0.13 0.06,-0.05 0,0 0.05,-0.05 0.05,-0.05 0.21,-0.23 0.37,-0.16 l 0.08,-0.05 c 0.11,0 0.13,-0.13 0.23,-0.13 a 0.39,0.39 0 0 0 0.16,-0.36 0.94,0.94 0 0 0 -0.13,-0.29 1.18,1.18 0 0 1 0,-0.53 c 0,-0.05 -0.05,-0.08 -0.05,-0.1 -0.08,0.29 0.11,0.66 -0.08,0.93 a 0.44,0.44 0 0 1 -0.13,0.36 v 0 c -0.16,-0.34 0.13,-0.71 0,-1 h -0.08 c -0.18,-0.16 -0.42,0 -0.63,-0.08 0,0 -0.05,0 -0.05,-0.08 a 0.11,0.11 0 0 1 0.1,-0.1 1.11,1.11 0 0 1 0.66,0 0.66,0.66 0 0 0 -0.05,-0.44 3.56,3.56 0 0 0 -1.19,-0.06 0.75,0.75 0 0 0 -0.55,0.08 0.5,0.5 0 0 0 0.08,0.39 1,1 0 0 1 0.56,0.05 c 0,0 0.16,0.08 0.16,0.13 v 0.61 c 0,0.08 0.13,0 0.18,0.05 a 0.13,0.13 0 0 1 0.06,0.08 v 0.05 c -0.08,0.1 -0.21,0 -0.32,0 -0.11,0 -0.08,0 -0.1,0 -0.08,-0.16 0,-0.37 -0.06,-0.55 h -0.29 l -0.05,-0.08 0.05,-0.11 H 43.9 c 0,0.05 0,0.13 0,0.19 a 2.4,2.4 0 0 0 0.1,1.18 1.54,1.54 0 0 0 0.13,0.18 l 0.11,0.05 z"
       transform="translate(0.19)"
       id="path347" />
    <path
       class="cls-3"
       d="M 30.31,43.73 C 30.5,43.5 30.79,43.42 31,43.21 a 9.14,9.14 0 0 1 1.9,-0.82 0.5,0.5 0 0 0 -0.08,-0.42 2,2 0 0 0 -0.21,-0.23 c -0.39,0.23 -0.69,0.65 -1.11,0.81 -0.16,0.11 -0.31,0.11 -0.42,0.18 a 1.23,1.23 0 0 0 -0.45,0.16 4.55,4.55 0 0 1 -0.61,0 v 0 a 1.34,1.34 0 0 0 0.13,0.53 c 0.13,0.08 0.08,0.24 0.16,0.31 z"
       transform="translate(0.19)"
       id="path349" />
    <path
       class="cls-2"
       d="m 32.58,43.69 0.34,-0.08 c 0,0 0,-0.08 0,-0.11 l -0.43,0.05 a 0.11,0.11 0 0 0 0,0.08 c 0,0 0.06,0 0.11,0.05"
       transform="translate(0.19)"
       id="path351" />
    <path
       class="cls-3"
       d="m 43.76,43.69 -0.18,-0.53 c 0,0 -0.05,-0.05 -0.1,0 l -0.06,0.32 0.08,0.13 z"
       transform="translate(0.19)"
       id="path353" />
    <path
       class="cls-2"
       d="m 44.87,43.58 h 0.05 c 0,0 0,0 0.05,-0.06 l -0.08,-0.21 h -0.61 l -0.13,0.16 c 0,0.05 0.11,0.05 0.19,0 0.08,-0.05 0,0 0.08,-0.05 l 0.43,0.08 c 0,0 0,0.06 0,0"
       transform="translate(0.19)"
       id="path355" />
    <path
       class="cls-3"
       d="m 24.3,43.42 h 1.05 v -0.9 a 7.05,7.05 0 0 1 -1.05,0 z"
       transform="translate(0.19)"
       id="path357" />
    <path
       class="cls-3"
       d="m 25.56,43.34 c 1,0 2.09,0 3,0 v -1.11 c -0.89,0.18 -2,0.13 -2.9,0.24 h -0.05 z"
       transform="translate(0.19)"
       id="path359" />
    <path
       class="cls-3"
       d="m 40.34,43.36 0.21,-0.58 v -0.26 h -0.37 a 1.67,1.67 0 0 0 0,0.79 c 0,0.05 0,0 0,0.05 z"
       transform="translate(0.19)"
       id="path361" />
    <path
       class="cls-3"
       d="m 39.71,43.36 c 0,0 0.08,0 0.1,0 0.14,-0.24 0,-0.55 0.06,-0.81 -0.16,-0.08 -0.37,0 -0.55,0 v 0.79 c 0.08,0.08 0.26,0 0.4,0.05"
       transform="translate(0.19)"
       id="path363" />
    <polygon
       class="cls-3"
       points="51.31,42.47 50.26,42.47 50.29,43.31 51.13,43.37 51.29,43.31 "
       id="polygon365" />
    <path
       class="cls-3"
       d="m 48.83,43.26 0.95,0.05 v -0.84 h -1.11 v 0.47 0.32 c 0,0.05 0.13,0 0.16,0"
       transform="translate(0.19)"
       id="path367" />
    <path
       class="cls-3"
       d="m 41,43.24 v 0 l -0.18,-0.4 c 0,0 -0.05,0 -0.08,0 -0.03,0 0.06,0.27 0.13,0.39 0.07,0.12 0.05,0 0.11,0.08 z"
       transform="translate(0.19)"
       id="path369" />
    <path
       class="cls-4"
       d="m 29.84,42.68 a 0.18,0.18 0 0 1 0.21,-0.08 2.21,2.21 0 0 0 0.84,0 0.33,0.33 0 0 1 0.11,-0.1 c 0,0 0,0 0.05,0 a 1.74,1.74 0 0 0 1,-0.84 v -0.05 a 8.3,8.3 0 0 0 -1.37,0.16 7.2,7.2 0 0 0 -0.89,0.26 0.1,0.1 0 0 1 -0.06,0 v 0.11 0.61 z"
       transform="translate(0.19)"
       id="path371" />
    <path
       class="cls-2"
       d="m 45,42.52 h 0.21 c 0,0 0,0 0,0 a 0.09,0.09 0 0 0 0,-0.06 c 0,0 0,0 0,0 0,0 0,0 -0.05,0 H 44.9 a 0.08,0.08 0 0 0 0,0.14 z"
       transform="translate(0.19)"
       id="path373" />
    <polygon
       class="cls-3"
       points="44.35,42.34 44.16,42.34 44.37,42.37 "
       id="polygon375" />
    <path
       class="cls-3"
       d="m 40.63,42.34 0.42,-0.78 a 8.36,8.36 0 0 0 -1.66,-0.05 c -0.05,0 -0.05,0 -0.08,0 v 0.73 c 0.42,0.1 0.89,-0.11 1.32,0.08"
       transform="translate(0.19)"
       id="path377" />
    <path
       class="cls-3"
       d="m 48.56,42.26 2.53,-0.06 v -0.76 h -2.93 c -0.05,0 0,0 0,0.08 a 5.73,5.73 0 0 1 0.37,0.71 z"
       transform="translate(0.19)"
       id="path379" />
    <path
       class="cls-3"
       d="m 24.3,42.18 h 0.47 l 0.16,-0.18 0.16,-0.1 -0.53,-0.76 -0.21,0.08 c 0,0 -0.05,0 -0.08,0.08 v 0.92 z"
       transform="translate(0.19)"
       id="path381" />
    <path
       class="cls-3"
       d="m 25,42.18 a 0.025,0 -180 0 0 0.05,0 c 0,0 0,0 0,0 0,0 0.08,0 0.11,0 0.03,0 0,0 0.05,0 0.05,0 0,-0.05 -0.08,-0.08 l -0.18,0.16 z"
       transform="translate(0.19)"
       id="path383" />
    <path
       class="cls-3"
       d="m 25.67,42.1 h 0.87 c 0,-0.21 -0.24,-0.39 -0.34,-0.6 0,0 0,0 0,0 -0.19,0 -0.29,0.22 -0.48,0.32 -0.19,0.1 -0.1,0.08 -0.16,0.13 l 0.11,0.21 z"
       transform="translate(0.19)"
       id="path385" />
    <path
       class="cls-3"
       d="m 26.91,42 h 0.22 c 0.1,-0.23 0.36,-0.28 0.52,-0.47 C 27.57,41.37 27.44,41.19 27.34,41 27.24,40.81 27.21,40.77 27.1,40.71 l -0.76,0.52 0.55,0.76 z"
       transform="translate(0.19)"
       id="path387" />
    <polygon
       class="cls-3"
       points="28.13,41.94 28,41.77 27.74,41.97 27.76,41.97 "
       id="polygon389" />
    <path
       class="cls-3"
       d="m 28.23,41.94 h 0.37 v -0.73 l -0.53,0.42 c 0.08,0.11 0.18,0.21 0.13,0.34 z"
       transform="translate(0.19)"
       id="path391" />
    <path
       class="cls-3"
       d="m 25.38,41.69 0.61,-0.45 c 0,0 0,0 0,0 0,0 0,0 -0.06,-0.05 l -0.47,-0.63 -0.64,0.45 a 2.51,2.51 0 0 0 0.55,0.77 z"
       transform="translate(0.19)"
       id="path393" />
    <path
       class="cls-3"
       d="m 29.82,41.63 0.4,-0.63 -0.5,-0.55 a 9.74,9.74 0 0 1 0.08,1.19 z"
       transform="translate(0.19)"
       id="path395" />
    <path
       class="cls-3"
       d="m 30.31,41.53 a 2,2 0 0 0 0.61,-0.11 13.87,13.87 0 0 1 4.75,0 C 34.9,39.84 33.98,38.33 33.11,36.8 a 0.09,0.09 0 0 0 0,-0.05 H 33 c -0.08,0.11 -0.16,0.24 -0.24,0.37 -0.61,1.05 -1.19,2.11 -1.79,3.14 a 10.52,10.52 0 0 0 -0.69,1.24 z"
       transform="translate(0.19)"
       id="path397" />
    <path
       class="cls-3"
       d="m 36.07,41.42 c 0.05,-1.29 0,-2.58 0,-3.88 h -0.56 a 4.39,4.39 0 0 0 -0.05,1.21 c 0,0.19 0,0.35 0,0.5 0,0.5 -0.08,1.11 0.21,1.51 z"
       transform="translate(0.19)"
       id="path399" />
    <path
       class="cls-3"
       d="m 43.58,41.4 a 7,7 0 0 1 1,-0.1 0.09,0.09 0 0 0 0.08,0 h 0.34 0.1 0.48 a 2.35,2.35 0 0 0 0.39,-0.72 l -0.32,0.08 v 0 a 0.16,0.16 0 0 0 0,0.16 v 0 c -0.24,0.13 -0.51,-0.1 -0.74,0 -0.08,0 -0.16,0 -0.21,-0.05 l -0.05,-0.06 0.1,-0.47 -0.16,-0.21 -0.15,0.1 -0.16,0.22 a 0.44,0.44 0 0 1 0.13,0.36 c -0.18,0.24 -0.55,0.13 -0.84,0.24 -0.05,0 -0.08,0 -0.11,-0.08 l 0.06,-0.21 -0.52,-0.03 0.53,0.79 z"
       transform="translate(0.19)"
       id="path401" />
    <path
       class="cls-3"
       d="m 27.92,41.37 0.68,-0.55 -0.53,-0.74 a 0.08,0.08 0 0 0 -0.1,0 c -0.21,0.19 -0.48,0.32 -0.66,0.5 a 3.66,3.66 0 0 0 0.58,0.79 z"
       transform="translate(0.19)"
       id="path403" />
    <path
       class="cls-3"
       d="m 41.21,41.29 0.63,-0.71 h -1.69 c 0,0 0,0 0,0.05 v 0.58 a 8.53,8.53 0 0 0 0.92,0 0.31,0.31 0 0 1 0.16,0"
       transform="translate(0.19)"
       id="path405" />
    <path
       class="cls-3"
       d="m 39.34,41.26 h 0.47 c 0.11,-0.15 0,-0.44 0,-0.66 0,0 0,0 0,0 h -0.47 v 0.68 z"
       transform="translate(0.19)"
       id="path407" />
    <path
       class="cls-3"
       d="m 48,41.23 1.77,-0.05 a 2.85,2.85 0 0 0 0,-0.66 17.58,17.58 0 0 0 -2.4,0 8.18,8.18 0 0 1 0.61,0.71 z"
       transform="translate(0.19)"
       id="path409" />
    <path
       class="cls-3"
       d="m 50.1,41.18 a 3.18,3.18 0 0 0 1,-0.05 V 40.5 a 6.43,6.43 0 0 0 -1.05,0 z"
       transform="translate(0.19)"
       id="path411" />
    <polygon
       class="cls-3"
       points="26.58,39.79 25.84,40.34 26.39,41.11 26.39,41.08 27.13,40.55 "
       id="polygon413" />
    <path
       class="cls-3"
       d="m 24.3,41 0.08,-0.05 c 0,0 0,0 0,-0.06 a 0.33,0.33 0 0 0 -0.1,-0.08 c 0,0 0,0.13 0,0.18 z"
       transform="translate(0.19)"
       id="path415" />
    <path
       class="cls-2"
       d="m 33,40.87 a 0.24,0.24 0 0 0 0.21,-0.1 0.64,0.64 0 0 1 0.13,-0.18 c 0,0 0,-0.05 0.05,-0.05 0.05,0 0,-0.08 0.05,-0.11 0.05,-0.03 0.24,0.16 0.4,0.08 0.16,-0.08 0.13,-0.19 0.13,-0.32 a 0.14,0.14 0 0 1 0,-0.08 L 34,40 v -0.08 a 0.11,0.11 0 0 1 0.08,0 0.17,0.17 0 0 0 0.13,-0.1 l -0.1,-0.29 -0.18,-0.24 c 0,-0.11 0.13,-0.26 0,-0.39 l -0.26,-0.11 c -0.11,0 -0.24,0.16 -0.37,0.11 l -0.11,-0.3 c -0.08,-0.05 -0.13,-0.18 -0.26,-0.13 -0.13,0.05 -0.11,0.16 -0.13,0.21 l -0.08,0.16 a 1,1 0 0 1 -0.29,0 c -0.08,0 -0.18,-0.05 -0.24,0 -0.06,0.05 0,0.37 -0.13,0.53 A 0.67,0.67 0 0 0 31.8,39.5 c 0,0.05 -0.08,0.19 0,0.26 0.08,0.07 0.1,0.13 0.21,0.16 l 0.1,0.16 c 0,0.1 -0.13,0.21 -0.08,0.34 a 0.21,0.21 0 0 0 0.21,0.13 0.37,0.37 0 0 0 0.29,0 l 0.21,0.13 0.21,0.31 z"
       transform="translate(0.19)"
       id="path417" />
    <path
       class="cls-3"
       d="m 24.62,40.76 0.66,-0.48 -0.48,-0.63 a 1.26,1.26 0 0 0 -0.52,0.39 v 0.29 z"
       transform="translate(0.19)"
       id="path419" />
    <path
       class="cls-3"
       d="m 30.36,40.74 v 0 l 0.45,-0.77 -0.18,-0.29 c -0.11,0 -0.16,0.11 -0.24,0.13 -0.08,0.02 -0.34,0.21 -0.48,0.4 l 0.39,0.53 z"
       transform="translate(0.19)"
       id="path421" />
    <path
       class="cls-3"
       d="m 33,40.63 c 0,0 0.06,0 0.06,0 a 0.55,0.55 0 0 0 0,-0.5 c 0,0 0,0 0,0 a 0.79,0.79 0 0 0 -0.1,0.5 z"
       transform="translate(0.19)"
       id="path423" />
    <polygon
       class="cls-3"
       points="27.53,39.1 26.76,39.63 27.34,40.4 27.37,40.4 28.08,39.84 "
       id="polygon425" />
    <path
       class="cls-3"
       d="m 42.07,40.37 a 6.86,6.86 0 0 1 1.32,-0.76 c -0.1,-0.08 -0.32,0 -0.47,0 -0.66,0 -1.3,0 -1.93,0 v 0.61 c 0.05,0.08 0.15,0 0.21,0.08 0.31,0 0.61,-0.06 0.87,0"
       transform="translate(0.19)"
       id="path427" />
    <path
       class="cls-3"
       d="m 28.6,40.32 v -0.66 l -0.31,0.18 c 0,0 0,0 0,0 l 0.32,0.45 z"
       transform="translate(0.19)"
       id="path429" />
    <path
       class="cls-3"
       d="m 33.72,40.32 v 0 a 0.13,0.13 0 0 0 0,-0.19 0.51,0.51 0 0 0 -0.24,-0.22 h -0.13 a 0.62,0.62 0 0 0 0.29,0.4 c 0,0 0.06,0 0.08,0"
       transform="translate(0.19)"
       id="path431" />
    <path
       class="cls-3"
       d="m 40.52,40.32 h 0.18 v -0.68 c -0.46,0 -1,0 -1.47,0 v 0.61 a 9.31,9.31 0 0 0 1.21,0.08"
       transform="translate(0.19)"
       id="path433" />
    <path
       class="cls-3"
       d="m 47.17,40.29 c 0.37,-0.08 0.79,0 1.18,0 a 2.77,2.77 0 0 0 0,-0.66 c 0,-0.05 0,0 0,-0.05 H 46.1 c 0.21,0.21 0.61,0.23 0.76,0.52 a 1.21,1.21 0 0 0 0.32,0.19"
       transform="translate(0.19)"
       id="path435" />
    <path
       class="cls-3"
       d="m 32.29,40.29 0.29,-0.08 0.13,-0.3 a 0.38,0.38 0 0 0 -0.37,0.18 l -0.11,0.14 a 0.08,0.08 0 0 0 0,0.05 z"
       transform="translate(0.19)"
       id="path437" />
    <path
       class="cls-3"
       d="m 48.67,40.26 h 2.43 v -0.68 h -2.43 l -0.05,0.66 c 0,0 0,0 0,0 z"
       transform="translate(0.19)"
       id="path439" />
    <path
       class="cls-3"
       d="m 25.46,40.13 0.74,-0.53 -0.42,-0.64 -0.76,0.5 v 0 z"
       transform="translate(0.19)"
       id="path441" />
    <path
       class="cls-3"
       d="m 29.82,39.89 0.58,-0.42 c 0,0 0,0 0.05,-0.08 A 2.65,2.65 0 0 0 29.92,38.7 h -0.13 a 4.69,4.69 0 0 0 -0.05,1.19 z"
       transform="translate(0.19)"
       id="path443" />
    <path
       class="cls-3"
       d="m 33,39.84 h 0.11 a 0.86,0.86 0 0 0 0,-0.26 c -0.06,0.05 -0.18,-0.06 -0.21,0 v 0.21 z"
       transform="translate(0.19)"
       id="path445" />
    <path
       class="cls-3"
       d="m 33.8,39.76 a 0.41,0.41 0 0 0 0.19,-0.08 V 39.6 a 0.34,0.34 0 0 0 -0.18,-0.13 l -0.24,0.05 c 0,0 -0.11,0.06 -0.11,0.11 z"
       transform="translate(0.19)"
       id="path447" />
    <path
       class="cls-3"
       d="m 24.27,39.68 0.31,-0.21 c 0.08,-0.08 0,-0.16 -0.08,-0.24 a 1,1 0 0 0 -0.29,-0.21 z"
       transform="translate(0.19)"
       id="path449" />
    <path
       class="cls-3"
       d="m 28.1,39.68 v 0 a 2,2 0 0 0 0.47,-0.4 V 39 c 0,-0.27 -0.21,-0.4 -0.26,-0.58 a 0.08,0.08 0 0 0 -0.05,0 l -0.74,0.52 0.52,0.74 z"
       transform="translate(0.19)"
       id="path451" />
    <path
       class="cls-3"
       d="m 32.21,39.74 0.42,-0.06 c 0,-0.05 -0.08,-0.1 -0.1,-0.1 A 1.37,1.37 0 0 0 32.05,39.5 c 0,0 0,0 -0.05,0.06 v 0.05 z"
       transform="translate(0.19)"
       id="path453" />
    <path
       class="cls-3"
       d="m 31,39.65 c 0,0 0,0 0.05,0 l 0.21,-0.39 -0.37,0.26 A 0.18,0.18 0 0 0 31,39.68"
       transform="translate(0.19)"
       id="path455" />
    <path
       class="cls-3"
       d="m 32.69,39.42 a 0.22,0.22 0 0 0 0,-0.26 0.59,0.59 0 0 0 -0.31,-0.24 v 0 c -0.06,0.06 0,0.16 0,0.22 a 1.14,1.14 0 0 0 0.31,0.29 z"
       transform="translate(0.19)"
       id="path457" />
    <path
       class="cls-3"
       d="m 26.41,39.42 a 4.06,4.06 0 0 0 0.77,-0.53 l -0.45,-0.63 -0.76,0.53 0.42,0.63 z"
       transform="translate(0.19)"
       id="path459" />
    <path
       class="cls-3"
       d="m 33.32,39.28 a 0.51,0.51 0 0 0 0.34,-0.1 0.38,0.38 0 0 0 0.08,-0.19 c 0,0 0.05,0 0,0 -0.05,0 -0.37,0 -0.42,0.19 -0.05,0.19 -0.05,0.13 0,0.13"
       transform="translate(0.19)"
       id="path461" />
    <path
       class="cls-3"
       d="m 24.88,39.26 0.74,-0.5 A 1.93,1.93 0 0 0 25.2,38.18 l -0.71,0.5 0.4,0.55 z"
       transform="translate(0.19)"
       id="path463" />
    <path
       class="cls-3"
       d="m 40.6,39.28 h 10.5 v -0.74 c -0.42,-0.08 -0.89,0 -1.32,-0.08 l -0.05,-0.53 c -0.56,0 -1.09,0 -1.66,0 l -0.13,0.63 a 0.08,0.08 0 0 1 -0.08,0.08 c -0.31,0 -0.66,0 -1,0 a 2.84,2.84 0 0 1 -1.08,-0.1 l -0.06,-0.5 a 6.69,6.69 0 0 0 -1.66,-0.08 c -0.08,0.1 0,0.31 0,0.47 v 0.06 A 0.21,0.21 0 0 1 43.93,38.67 6.29,6.29 0 0 1 42,38.47 0.92,0.92 0 0 1 41.95,37.94 c -0.53,-0.08 -1.11,0 -1.63,-0.05 -0.13,0.19 0.06,0.47 -0.1,0.69 a 5.38,5.38 0 0 1 -0.93,0.05 1.82,1.82 0 0 0 0,0.53 5.14,5.14 0 0 0 1.29,0.13"
       transform="translate(0.19)"
       id="path465" />
    <path
       class="cls-3"
       d="m 30.68,39.23 0.74,-0.55 a 3,3 0 0 0 -0.53,-0.74 8.58,8.58 0 0 0 -0.77,0.61 2.77,2.77 0 0 0 0.56,0.69"
       transform="translate(0.19)"
       id="path467" />
    <path
       class="cls-3"
       d="m 33,39.23 h 0.11 c 0.1,-0.11 0,-0.34 0,-0.5 v 0 a 0.47,0.47 0 0 0 -0.15,0.39 0.09,0.09 0 0 1 0,0.06 z"
       transform="translate(0.19)"
       id="path469" />
    <path
       class="cls-3"
       d="m 27.36,38.73 0.76,-0.52 a 2,2 0 0 0 -0.48,-0.64 l -0.74,0.56 0.43,0.6 z"
       transform="translate(0.19)"
       id="path471" />
    <path
       class="cls-3"
       d="m 25.8,38.57 0.74,-0.53 a 1.49,1.49 0 0 0 -0.37,-0.48 l -0.37,0.06 c -0.06,0 0,0.15 -0.11,0.18 -0.11,0.03 -0.24,0.1 -0.31,0.24 z"
       transform="translate(0.19)"
       id="path473" />
    <path
       class="cls-3"
       d="m 28.6,38.57 v 0 l -0.05,-0.42 c 0,0 0,0 0,0 0,0 -0.16,0 -0.16,0.13 z"
       transform="translate(0.19)"
       id="path475" />
    <polygon
       class="cls-3"
       points="25.07,37.75 24.44,37.89 24.44,38.52 24.47,38.52 25.23,37.96 "
       id="polygon477" />
    <path
       class="cls-3"
       d="m 31.66,38.49 v 0 l 0.39,-0.66 -0.34,-0.48 c -0.22,0.05 -0.4,0.29 -0.61,0.42 a 2.18,2.18 0 0 0 0.5,0.74 z"
       transform="translate(0.19)"
       id="path479" />
    <path
       class="cls-3"
       d="M 39.52,38.33 H 40 c 0.07,-0.1 0,-0.29 0,-0.45 0,-0.16 0,0 -0.08,0 a 0.67,0.67 0 0 0 -0.42,0.34 l -0.05,0.1 c 0,0 0,0 0,0"
       transform="translate(0.19)"
       id="path481" />
    <path
       class="cls-3"
       d="m 42.31,38.31 h 1.4 c 0.08,-0.18 0,-0.45 0.16,-0.58 0.58,-0.26 1.26,0 1.89,-0.13 A 0.3,0.3 0 0 1 46,37.73 c 0,0.19 0,0.35 0,0.5 a 7.34,7.34 0 0 0 1.69,0 v 0 -0.48 c 0,0 0.05,-0.08 0.1,-0.1 a 13.48,13.48 0 0 1 1.5,-0.06 c 0.21,0 0.48,0 0.61,0.08 0.13,0.08 0,0.34 0.08,0.5 h 1 v -0.74 l -1.29,-0.08 a 0.12,0.12 0 0 1 -0.08,-0.13 2.85,2.85 0 0 0 0,-0.47 11.26,11.26 0 0 0 -1.61,-0.07 0.15,0.15 0 0 0 0,0.15 0.85,0.85 0 0 1 -0.08,0.5 14,14 0 0 1 -1.87,0.05 0.75,0.75 0 0 1 -0.29,-0.13 L 45.71,36.77 A 11.74,11.74 0 0 0 44,36.7 l -0.05,0.55 c -0.05,0.1 -0.19,0.1 -0.24,0.15 a 11.37,11.37 0 0 0 -1.58,0 L 42,37.2 v -0.45 c -0.53,-0.07 -1.08,0 -1.61,0 a 3.37,3.37 0 0 0 -0.05,0.89 c 0.6,0.16 1.31,-0.13 1.89,0.11 l 0.05,0.56 a 0.05,0.05 0 0 0 0.05,0"
       transform="translate(0.19)"
       id="path483" />
    <path
       class="cls-3"
       d="m 30,38.28 c 0.16,0 0.27,-0.18 0.43,-0.26 0.16,-0.08 0.26,-0.16 0.34,-0.3 l -0.34,-0.5 -0.53,0.08 -0.08,0.21 c 0,0.26 0,0.58 0.18,0.77"
       transform="translate(0.19)"
       id="path485" />
    <path
       class="cls-3"
       d="m 28.36,38 0.18,-0.1 v -0.21 c 0,-0.05 -0.1,0 -0.13,0 -0.03,0 -0.1,-0.06 -0.1,-0.11 v -0.19 l -0.45,0.05 c 0.05,0.24 0.26,0.4 0.42,0.61 z"
       transform="translate(0.19)"
       id="path487" />
    <polygon
       class="cls-3"
       points="26.95,37.91 26.97,37.91 27.55,37.47 26.74,37.54 26.7,37.57 "
       id="polygon489" />
    <path
       class="cls-3"
       d="m 25.25,37.84 0.16,-0.11 c -0.06,0 -0.13,0 -0.21,0 v 0.08 z"
       transform="translate(0.19)"
       id="path491" />
    <path
       class="cls-3"
       d="m 31,37.57 0.63,-0.47 c 0,0 0,0 0,0 l -0.87,0.1 c 0,0.14 0.13,0.27 0.27,0.4"
       transform="translate(0.19)"
       id="path493" />
    <path
       class="cls-3"
       d="M 32.26,37.47 32.5,37 a 0.64,0.64 0 0 0 -0.39,0 l -0.08,0.08 v 0.08 l 0.24,0.29 z"
       transform="translate(0.19)"
       id="path495" />
    <path
       class="cls-3"
       d="m 29,37.28 h 0.48 l -0.21,-0.45 c -0.16,0.06 -0.24,0.27 -0.34,0.39 v 0.06 z"
       transform="translate(0.19)"
       id="path497" />
    <path
       class="cls-3"
       d="m 35.38,37.26 0.53,-0.06 a 0.81,0.81 0 0 0 -0.26,-0.45 1.11,1.11 0 0 0 -0.29,0.5 z"
       transform="translate(0.19)"
       id="path499" />
    <path
       class="cls-3"
       d="m 33.09,35.64 0.18,-0.05 a 1.83,1.83 0 0 0 -0.15,-0.82 c 0,0 0,0.08 -0.06,0.08 0,0.27 -0.15,0.58 0,0.79 z"
       transform="translate(0.19)"
       id="path501" />
    <path
       class="cls-3"
       d="m 33.8,34.78 c 0,0 0.13,0.1 0.19,0.08 a 0.7,0.7 0 0 0 0,-0.42 l -0.71,0.16 a 0.26,0.26 0 0 1 0,0.08 z"
       transform="translate(0.19)"
       id="path503" />
    <path
       class="cls-3"
       d="m 32.06,34.85 0.69,-0.13 0.1,-0.06 -0.1,-0.13 -0.64,-0.06 v 0 0.22 c 0,0 0,0.13 0,0.13"
       transform="translate(0.19)"
       id="path505" />
    <path
       class="cls-3"
       d="m 33.09,34.43 a 0.18,0.18 0 0 0 0.1,-0.05 l 0.08,-0.74 c 0,0 0,-0.05 0,-0.05 h -0.39 c -0.05,0 0,0.13 0,0.18 a 5.6,5.6 0 0 1 0.24,0.64 z"
       transform="translate(0.19)"
       id="path507" />
    <path
       class="cls-3"
       d="M 22.45,28 24.22,27.53 24,26.94 a 9.42,9.42 0 0 0 -1.88,0.61 z"
       transform="translate(0.19)"
       id="path509" />
    <path
       class="cls-3"
       d="m 52.84,27.86 c 0.18,-0.11 0.26,-0.32 0.4,-0.48 0.14,-0.16 0,-0.05 0,-0.05 -0.21,-0.18 -0.55,-0.18 -0.82,-0.31 0,0 0,0 -0.05,0 l -0.24,0.61 z"
       transform="translate(0.19)"
       id="path511" />
    <path
       class="cls-3"
       d="m 51.86,27.6 c 0,0 0,0 0.05,0 l 0.21,-0.61 a 12.26,12.26 0 0 0 -1.89,-0.53 1.67,1.67 0 0 0 -0.16,0.72 z"
       transform="translate(0.19)"
       id="path513" />
    <path
       class="cls-3"
       d="m 24.51,27.44 2.16,-0.5 -0.13,-0.66 c -0.66,0.13 -1.45,0.31 -2.19,0.5 0,0 0,0 -0.05,0 z"
       transform="translate(0.19)"
       id="path515" />
    <path
       class="cls-3"
       d="M 22,27.26 23,27 c 0,-0.13 -0.13,-0.61 -0.26,-0.66 l -1.22,0.28 z"
       transform="translate(0.19)"
       id="path517" />
    <path
       class="cls-3"
       d="m 49.65,27.1 h 0.13 l 0.16,-0.71 A 4.45,4.45 0 0 1 48.89,26.13 11,11 0 0 1 47.75,25.9 l -0.18,0.76 v 0.05 z"
       transform="translate(0.19)"
       id="path519" />
    <path
       class="cls-3"
       d="m 53.39,27.07 v 0 l 0.29,-0.34 c 0,0 0,0 0,-0.05 A 8,8 0 0 0 51.6,26 l -0.16,0.48 z"
       transform="translate(0.19)"
       id="path521" />
    <path
       class="cls-3"
       d="m 27,26.89 2.16,-0.4 c 0.08,-0.18 -0.08,-0.5 -0.1,-0.74 -0.71,0.18 -1.43,0.29 -2.22,0.42 l 0.11,0.66 v 0.05 z"
       transform="translate(0.19)"
       id="path523" />
    <path
       class="cls-3"
       d="m 23.3,26.86 2,-0.53 L 25.14,25.64 23,26.2 a 1.19,1.19 0 0 0 0.24,0.66 z"
       transform="translate(0.19)"
       id="path525" />
    <path
       class="cls-3"
       d="m 47.22,26.65 h 0.05 c 0.13,-0.16 0.11,-0.4 0.16,-0.58 0.05,-0.18 0.05,-0.16 0.05,-0.22 v 0 l -2.19,-0.37 -0.11,0.82 c 0.66,0.15 1.37,0.21 2.06,0.37"
       transform="translate(0.19)"
       id="path527" />
    <path
       class="cls-3"
       d="m 29.5,26.43 2.09,-0.26 c 0,0 0,0 0,0 L 31.51,25.4 a 19.17,19.17 0 0 0 -2.16,0.29 2.37,2.37 0 0 0 0.11,0.76 z"
       transform="translate(0.19)"
       id="path529" />
    <path
       class="cls-3"
       d="m 51.12,26.43 a 0.09,0.09 0 0 0 0.05,0 l 0.16,-0.5 a 11.88,11.88 0 0 0 -2.19,-0.5 l -0.13,0.48 c 0.64,0.23 1.4,0.34 2.11,0.55"
       transform="translate(0.19)"
       id="path531" />
    <path
       class="cls-3"
       d="m 53.95,26.36 v 0 a 1.53,1.53 0 0 0 0.37,-0.53 25.86,25.86 0 0 0 -3,-1 A 55.74,55.74 0 0 0 39.39,23 c -1,-0.06 -1.95,0 -2.93,0 -0.76,0 -1.45,0 -2.19,0.05 a 52.32,52.32 0 0 0 -5.36,0.58 51.53,51.53 0 0 0 -6.73,1.58 c -0.42,0.16 -0.87,0.34 -1.27,0.48 l 0.4,0.61 a 61,61 0 0 1 6.69,-1.61 55.39,55.39 0 0 1 7.68,-0.82 50.35,50.35 0 0 1 13.58,1.19 c 0.56,0.11 1.09,0.27 1.61,0.39 a 27.82,27.82 0 0 1 3,0.9 z"
       transform="translate(0.19)"
       id="path533" />
    <path
       class="cls-3"
       d="m 44.81,26.28 h 0.08 c 0.1,-0.21 0.05,-0.5 0.13,-0.74 0,-0.05 0,-0.05 0,-0.08 -0.74,-0.1 -1.45,-0.23 -2.19,-0.29 l -0.08,0.84 c 0.61,0.16 1.37,0.13 2,0.27"
       transform="translate(0.19)"
       id="path535" />
    <polygon
       class="cls-3"
       points="27.79,25.04 25.57,25.57 25.7,26.23 25.73,26.25 27.95,25.75 "
       id="polygon537" />
    <polygon
       class="cls-3"
       points="33.96,25.15 31.98,25.38 32.09,26.12 33.99,25.94 "
       id="polygon539" />
    <path
       class="cls-3"
       d="m 42.42,26 h 0.05 a 2.83,2.83 0 0 0 0.13,-0.84 11.92,11.92 0 0 0 -2,-0.19 6.92,6.92 0 0 0 -0.05,0.82 z"
       transform="translate(0.19)"
       id="path541" />
    <path
       class="cls-3"
       d="m 34.09,25.94 2,-0.11 L 36,25 l -2,0.13 0.06,0.79 c 0,0 0,0 0,0"
       transform="translate(0.19)"
       id="path543" />
    <path
       class="cls-3"
       d="m 40.13,25.85 h 0.16 c 0.1,-0.18 0,-0.47 0,-0.73 0,-0.06 0,-0.06 0,-0.11 V 25 c 0,0 0,0 -0.05,0 h -1.85 c -0.08,0.18 0,0.39 -0.05,0.6 -0.05,0.21 0,0.16 0.05,0.24 z"
       transform="translate(0.19)"
       id="path545" />
    <path
       class="cls-3"
       d="m 48.75,25.85 v 0 l 0.13,-0.5 a 9.94,9.94 0 0 0 -2.33,-0.5 l -0.13,0.55 z"
       transform="translate(0.19)"
       id="path547" />
    <path
       class="cls-3"
       d="m 36.35,25.83 h 1.69 a 1.69,1.69 0 0 0 0,-0.84 H 36.3 a 2.75,2.75 0 0 0 0,0.79 0.09,0.09 0 0 0 0,0.08 z"
       transform="translate(0.19)"
       id="path549" />
    <path
       class="cls-3"
       d="m 28.07,25.7 2.11,-0.43 -0.1,-0.6 a 17,17 0 0 0 -2.16,0.34 l 0.13,0.66 z"
       transform="translate(0.19)"
       id="path551" />
    <path
       class="cls-3"
       d="m 54.45,25.62 v 0 l 0.21,-0.26 c -0.45,-0.21 -1,-0.34 -1.45,-0.55 a 51.81,51.81 0 0 0 -15.14,-2.4 c -0.55,0 -1.05,0 -1.58,0 a 20.42,20.42 0 0 0 -2.16,0.11 51.88,51.88 0 0 0 -5.75,0.69 56.84,56.84 0 0 0 -7.12,1.71 c -0.26,0.13 -0.55,0.24 -0.81,0.37 l 0.1,0.16 C 22.52,25 24.34,24.37 26.16,24 c 0.4,-0.11 0.8,-0.16 1.22,-0.27 a 51.36,51.36 0 0 1 11,-0.92 53.82,53.82 0 0 1 10.37,1.19 c 1,0.29 2.11,0.52 3.16,0.79 0.87,0.24 1.71,0.56 2.53,0.84"
       transform="translate(0.19)"
       id="path553" />
    <path
       class="cls-3"
       d="m 46.11,25.38 h 0.08 l 0.1,-0.55 a 18.77,18.77 0 0 0 -2.08,-0.32 v 0 l -0.05,0.55 z"
       transform="translate(0.19)"
       id="path555" />
    <path
       class="cls-3"
       d="M 30.47,25.27 32.56,25 32.5,24.37 a 11.46,11.46 0 0 0 -2.11,0.24 l 0.05,0.66 z"
       transform="translate(0.19)"
       id="path557" />
    <path
       class="cls-3"
       d="m 54.79,25.15 a 0.1,0.1 0 0 0 0.06,0 6,6 0 0 0 0.4,-0.64 13.55,13.55 0 0 0 -1.72,-0.55 l -0.24,0.58 v 0.11 z"
       transform="translate(0.19)"
       id="path559" />
    <path
       class="cls-3"
       d="m 43.71,25 h 0.1 c 0.13,-0.13 0.08,-0.37 0.11,-0.53 a 16.52,16.52 0 0 0 -2.16,-0.23 l -0.06,0.55 a 13.43,13.43 0 0 1 2,0.21"
       transform="translate(0.19)"
       id="path561" />
    <path
       class="cls-3"
       d="m 20.5,25 1.56,-0.5 a 0.08,0.08 0 0 1 0,-0.05 l -0.29,-0.63 -1.67,0.56 a 0.17,0.17 0 0 0 0,0.15 c 0.16,0.16 0.18,0.34 0.34,0.5 z"
       transform="translate(0.19)"
       id="path563" />
    <path
       class="cls-3"
       d="m 32.87,25 1.82,-0.16 c 0.16,-0.16 0,-0.42 0.05,-0.63 v 0 l -1.9,0.13 a 2.11,2.11 0 0 0 0,0.69 z"
       transform="translate(0.19)"
       id="path565" />
    <path
       class="cls-3"
       d="m 35.06,24.83 1.93,-0.1 v -0.61 a 16.62,16.62 0 0 0 -2,0.06 z"
       transform="translate(0.19)"
       id="path567" />
    <path
       class="cls-3"
       d="m 41.18,24.83 h 0.24 c 0.1,-0.19 0,-0.37 0.08,-0.56 l -1.81,-0.1 a 1.35,1.35 0 0 0 0,0.58 z"
       transform="translate(0.19)"
       id="path569" />
    <path
       class="cls-3"
       d="m 37.3,24.75 h 2 c 0.1,-0.13 0.05,-0.4 0.05,-0.58 -0.66,-0.08 -1.37,0 -2.06,-0.06 a 4.88,4.88 0 0 0 0,0.61 0.06,0.06 0 0 0 0.05,0.06"
       transform="translate(0.19)"
       id="path571" />
    <path
       class="cls-3"
       d="m 53,24.51 a 2.3,2.3 0 0 0 0.26,-0.68 13.9,13.9 0 0 0 -1.84,-0.58 l -0.13,0.74 1.69,0.52 z"
       transform="translate(0.19)"
       id="path573" />
    <path
       class="cls-3"
       d="m 22.37,24.38 1.74,-0.48 -0.18,-0.71 a 12,12 0 0 0 -1.85,0.5 l 0.27,0.69 z"
       transform="translate(0.19)"
       id="path575" />
    <path
       class="cls-3"
       d="m 55.34,24.2 a 0.17,0.17 0 0 0 0.19,-0.05 3.09,3.09 0 0 0 0.45,-0.74 9,9 0 0 0 -1.26,-0.48 l -0.45,0.9 z"
       transform="translate(0.19)"
       id="path577" />
    <polygon
       class="cls-3"
       points="20.01,23.25 19.64,23.38 20.11,24.09 20.38,23.99 "
       id="polygon579" />
    <path
       class="cls-3"
       d="m 50.91,23.85 c 0,0 0,0.05 0.05,0 l 0.16,-0.71 a 25.64,25.64 0 0 0 -2.58,-0.64 3.34,3.34 0 0 0 -0.21,0.77 z"
       transform="translate(0.19)"
       id="path581" />
    <polygon
       class="cls-3"
       points="20.27,23.14 20.64,23.88 22.38,23.32 22.04,22.59 "
       id="polygon583" />
    <path
       class="cls-3"
       d="m 24.4,23.83 2,-0.45 a 2.22,2.22 0 0 0 -0.19,-0.79 l -2,0.5 0.21,0.77 z"
       transform="translate(0.19)"
       id="path585" />
    <path
       class="cls-3"
       d="m 54,23.78 a 0.11,0.11 0 0 1 0,-0.06 L 54.42,22.85 54,22.72 a 3.82,3.82 0 0 0 -0.4,0.9 z"
       transform="translate(0.19)"
       id="path587" />
    <path
       class="cls-3"
       d="m 28.76,22.93 -0.13,-0.74 a 12,12 0 0 0 -2.1,0.37 c -0.06,0.11 0,0.21 0,0.35 a 2.68,2.68 0 0 1 0.1,0.45 13.47,13.47 0 0 0 2.09,-0.37"
       transform="translate(0.19)"
       id="path589" />
    <path
       class="cls-3"
       d="m 47.9,23.22 h 0.16 l 0.18,-0.77 c 0,-0.08 -0.18,0 -0.26,-0.08 A 17.91,17.91 0 0 0 45.92,22 2.1,2.1 0 0 0 45.84,22.81 Z"
       transform="translate(0.19)"
       id="path591" />
    <path
       class="cls-3"
       d="m 56.11,23.2 c 0.18,-0.13 0.24,-0.37 0.37,-0.53 v -0.05 l -0.58,-0.16 -0.24,0.55 z"
       transform="translate(0.19)"
       id="path593" />
    <path
       class="cls-3"
       d="m 19.34,23.14 1,-0.34 -0.24,-0.55 a 2.64,2.64 0 0 0 -1.05,0.42 l 0.26,0.47 z"
       transform="translate(0.19)"
       id="path595" />
    <path
       class="cls-3"
       d="m 55.32,22.9 v 0 l 0.14,-0.1 0.21,-0.51 a 3.4,3.4 0 0 0 -1.24,-0.42 1.7,1.7 0 0 0 -0.29,0.61 z"
       transform="translate(0.19)"
       id="path597" />
    <polygon
       class="cls-3"
       points="31.27,21.74 29.11,22.06 29.24,22.88 29.27,22.88 31.38,22.56 "
       id="polygon599" />
    <path
       class="cls-3"
       d="m 45.48,22.8 h 0.05 L 45.69,22 a 18.83,18.83 0 0 0 -2.4,-0.34 c -0.13,0.21 -0.08,0.55 -0.13,0.81 0.74,0.13 1.56,0.19 2.32,0.32"
       transform="translate(0.19)"
       id="path601" />
    <path
       class="cls-3"
       d="m 50.68,22.74 h 0.05 a 5.23,5.23 0 0 0 0.29,-0.89 2.83,2.83 0 0 0 -1,-0.29 l -0.27,0.92 z"
       transform="translate(0.19)"
       id="path603" />
    <polygon
       class="cls-3"
       points="20.56,22.11 20.77,22.64 21.93,22.27 21.75,21.69 "
       id="polygon605" />
    <polygon
       class="cls-3"
       points="24.78,22.67 25.07,22.56 24.86,21.72 24.54,21.77 24.75,22.67 "
       id="polygon607" />
    <polygon
       class="cls-3"
       points="26.65,21.27 25.1,21.64 25.31,22.51 25.33,22.51 26.84,22.19 "
       id="polygon609" />
    <path
       class="cls-3"
       d="m 31.47,22.51 1.77,-0.16 a 2.91,2.91 0 0 0 -0.05,-0.84 l -1.82,0.19 0.08,0.81 z"
       transform="translate(0.19)"
       id="path611" />
    <path
       class="cls-3"
       d="m 42.76,22.48 h 0.1 a 2.83,2.83 0 0 0 0.13,-0.84 21.67,21.67 0 0 0 -2.27,-0.22 l -0.05,0.85 z"
       transform="translate(0.19)"
       id="path613" />
    <path
       class="cls-3"
       d="m 49.51,22.46 0.26,-0.92 a 1.55,1.55 0 0 0 -0.71,-0.19 c -0.13,0.29 -0.16,0.63 -0.27,1 z"
       transform="translate(0.19)"
       id="path615" />
    <path
       class="cls-3"
       d="m 33.56,22.35 2.35,-0.13 V 21.4 a 23.94,23.94 0 0 0 -2.42,0.06 l 0.05,0.87"
       transform="translate(0.19)"
       id="path617" />
    <path
       class="cls-3"
       d="m 40.26,22.27 h 0.16 c 0.1,-0.24 0,-0.56 0.08,-0.82 a 14.26,14.26 0 0 0 -2.16,-0.13 v 0.84 c 0.61,0.08 1.31,0 2,0.11"
       transform="translate(0.19)"
       id="path619" />
    <path
       class="cls-3"
       d="M 36.2,22.22 38,22.16 v -0.82 h -1.45 -0.4 a 3,3 0 0 0 0,0.87 z"
       transform="translate(0.19)"
       id="path621" />
    <path
       class="cls-3"
       d="m 45.85,21.72 h 0.08 l 0.21,-0.92 a 12.36,12.36 0 0 0 -2,-0.34 l -0.16,1 z"
       transform="translate(0.19)"
       id="path623" />
    <path
       class="cls-3"
       d="m 29.45,21.67 0.42,-0.08 -0.11,-0.92 c -0.13,-0.08 -0.31,0 -0.47,0 a 3.5,3.5 0 0 0 0.1,1 z"
       transform="translate(0.19)"
       id="path625" />
    <path
       class="cls-3"
       d="m 30.18,21.56 1.27,-0.16 c 0.13,-0.31 -0.05,-0.68 -0.05,-1 l -1.32,0.16 a 2.08,2.08 0 0 0 0.08,1 c 0,0 0,0 0,0"
       transform="translate(0.19)"
       id="path627" />
    <path
       class="cls-3"
       d="m 51,21.56 v 0 l 0.21,-0.71 -2,-0.52 a 2,2 0 0 0 -0.19,0.74 z"
       transform="translate(0.19)"
       id="path629" />
    <path
       class="cls-3"
       d="m 24.27,21.51 1.32,-0.34 -0.16,-0.63 -1.24,0.31 c -0.08,0.18 0.06,0.45 0.08,0.66"
       transform="translate(0.19)"
       id="path631" />
    <path
       class="cls-3"
       d="m 34.19,21.16 1.16,-0.08 -0.05,-1 c -0.13,0 -1.14,0.06 -1.14,0.08 v 1"
       transform="translate(0.19)"
       id="path633" />
    <path
       class="cls-3"
       d="m 40.84,21.16 h 0.29 l 0.08,-0.93 a 6.69,6.69 0 0 0 -1.45,-0.1 v 1 z"
       transform="translate(0.19)"
       id="path635" />
    <path
       class="cls-3"
       d="m 25.88,21.11 0.55,-0.08 -0.21,-0.73 -0.48,0.13 a 1.67,1.67 0 0 0 0.11,0.69 z"
       transform="translate(0.19)"
       id="path637" />
    <path
       class="cls-3"
       d="m 36.23,21.06 v -1 c -0.16,-0.06 -0.4,0 -0.61,0 v 1 h 0.58"
       transform="translate(0.19)"
       id="path639" />
    <path
       class="cls-3"
       d="m 39.23,21.09 h 0.22 a 3,3 0 0 0 0.05,-1 0.51,0.51 0 0 0 -0.35,0 v 0.89 c 0,0 0.08,0 0.1,0.06"
       transform="translate(0.19)"
       id="path641" />
    <path
       class="cls-3"
       d="m 46,20.51 h 0.13 a 1.47,1.47 0 0 0 0.13,-0.69 6.25,6.25 0 0 0 -1,-0.18 l -0.1,0.74 z"
       transform="translate(0.19)"
       id="path643" />
    <path
       class="cls-3"
       d="m 29.24,20.45 1.29,-0.21 v 0 l -0.08,-0.63 a 8.47,8.47 0 0 0 -1.32,0.21 l 0.05,0.61 c 0,0 0,0 0,0"
       transform="translate(0.19)"
       id="path645" />
    <path
       class="cls-3"
       d="M 44.85,20.35 H 45 a 2,2 0 0 0 0.11,-0.72 c -0.18,-0.13 -0.5,-0.08 -0.74,-0.13 -0.11,0.13 -0.08,0.34 -0.16,0.53 v 0.19 c 0.16,0.14 0.45,0.08 0.66,0.14"
       transform="translate(0.19)"
       id="path647" />
    <path
       class="cls-3"
       d="m 30.87,20.21 0.5,-0.08 -0.11,-0.64 -0.47,0.06 a 1,1 0 0 0 0.05,0.63 z"
       transform="translate(0.19)"
       id="path649" />
    <polygon
       class="cls-3"
       points="41.45,19.23 40.92,19.13 40.94,19.95 41.4,19.95 "
       id="polygon651" />
    <path
       class="cls-3"
       d="M 40.47,19.87 V 19.21 A 3.16,3.16 0 0 0 39.15,19.1 l -0.05,0.71 z"
       transform="translate(0.19)"
       id="path653" />
    <path
       class="cls-3"
       d="m 34.17,19.93 h 0.32 a 1.71,1.71 0 0 0 0,-0.71 h -0.35 v 0.74 z"
       transform="translate(0.19)"
       id="path655" />
    <polygon
       class="cls-3"
       points="36.37,19.13 34.94,19.16 34.94,19.87 34.96,19.87 36.39,19.84 "
       id="polygon657" />
    <path
       class="cls-2"
       d="m 34.41,57.57 h -0.09 v 0 a 2.08,2.08 0 0 1 -0.17,0.26 1.3,1.3 0 0 0 -0.22,0.37 h 0.08 a 1.33,1.33 0 0 1 0.21,-0.35 2.12,2.12 0 0 0 0.17,-0.26 h 0.07 a 4.31,4.31 0 0 1 1.27,-0.39 v -0.09 a 4.42,4.42 0 0 0 -1.3,0.4"
       transform="translate(0.19)"
       id="path659" />
  </g>
</svg>
